<?xml version="1.0" standalone="no"?><!DOCTYPE svg PUBLIC "-//W3C//DTD SVG 1.1//EN"
        "http://www.w3.org/Graphics/SVG/1.1/DTD/svg11.dtd">
<svg t="1483506789661" class="icon" style="" viewBox="0 0 1024 1024" version="1.1" xmlns="http://www.w3.org/2000/svg"
     p-id="1979" xmlns:xlink="http://www.w3.org/1999/xlink" width="200" height="200">
    <defs>
        <style type="text/css"></style>
    </defs>
    <path d="M212.826852 816.09824m-50.927548 0a50.927548 50.927548 0 1 0 101.855096 0 50.927548 50.927548 0 1 0-101.855096 0Z"
          fill="none" p-id="1980"></path>
    <path d="M811.382726 816.09824m-50.927548 0a50.927548 50.927548 0 1 0 101.855096 0 50.927548 50.927548 0 1 0-101.855096 0Z"
          fill="none" p-id="1981"></path>
    <path d="M342.346296 797.026607h-62.45436c-8.383135-29.340974-35.209169-50.927548-67.274662-50.927548-38.562423 0-69.789603 31.436758-69.789603 69.789602 0 38.562423 31.436758 69.789603 69.789603 69.789603 31.855915 0 58.891527-21.586574 67.274662-50.927548h62.45436c41.915677 0 76.076955-34.161277 76.076954-76.076954v-116.525584c0-10.478919-8.592714-19.071633-19.071633-19.071633s-19.071633 8.592714-19.071633 19.071633V758.673762c0.209578 21.167417-16.766271 38.352845-37.933688 38.352845z m-129.519444 50.927548c-17.604585 0-31.855915-14.25133-31.855915-31.855915 0-17.604585 14.25133-31.855915 31.855915-31.855915s31.855915 14.25133 31.855915 31.855915c0 17.395006-14.460909 31.855915-31.855915 31.855915zM624.648383 623.495702c-10.478919 0-19.071633 8.592714-19.071633 19.071633v116.525584c0 41.915677 34.161277 76.076955 76.076954 76.076954h62.45436c8.383135 29.340974 35.209169 50.927548 67.274662 50.927548 38.562423 0 69.789603-31.436758 69.789603-69.789603 0-38.562423-31.436758-69.789603-69.789603-69.789603-31.855915 0-58.891527 21.586574-67.274662 50.927548h-62.244781c-20.957839 0-38.143266-17.185428-38.143267-38.143266v-116.525583c0-10.898076-8.592714-19.281212-19.071633-19.281212z m186.734343 160.537045c17.604585 0 31.855915 14.25133 31.855915 31.855914 0 17.604585-14.25133 31.855915-31.855915 31.855915-17.604585 0-31.855915-14.25133-31.855915-31.855915 0-17.395006 14.460909-31.855915 31.855915-31.855914z"
          fill="#fff" p-id="1982"></path>
    <path d="M512.104789 954.210397m-50.927548 0a50.927548 50.927548 0 1 0 101.855096 0 50.927548 50.927548 0 1 0-101.855096 0Z"
          fill="#E25673" p-id="1983"></path>
    <path d="M532.85305 0c-77.124847 0-148.591077 42.125256-186.315187 108.561605-7.7544-1.676627-15.508801-2.305362-23.682357-2.305363-64.130986 0-116.525583 52.185018-116.525584 116.525584 0 8.592714 0.838314 16.975849 2.724519 25.358984-42.125256 29.760131-67.903397 79.011052-67.903397 131.405649 0 87.603766 70.20876 165.566926 153.411379 170.177651h416.851412c96.19648-6.706508 171.435121-89.280393 171.435121-187.572657 0-85.927139-58.681948-162.004093-138.740892-182.542775-16.347114-103.322145-104.998772-179.608678-211.255014-179.608678z m312.271797 362.151453c0 77.124847-60.777732 144.18993-135.387639 149.638969h-413.498158c-63.502251-3.772411-117.154318-64.340565-117.154318-132.243963 0-44.011461 23.682358-85.088825 61.616046-107.094556 7.963979-4.610725 11.526811-14.460909 8.173557-23.053622-3.143676-8.383135-4.610725-17.395006-4.610725-26.826034 0-43.382726 35.209169-78.591895 78.591896-78.591895 9.221449 0 18.23332 1.676627 26.826033 4.610725 9.221449 3.353254 19.49079-0.838314 23.891936-9.640606 28.921817-61.406467 91.585755-101.016783 159.489153-101.016783 91.376177 0 166.824396 68.322554 175.41711 159.069996 0.838314 8.592714 7.335244 15.508801 15.718379 16.975849 68.741711 11.73639 120.926729 75.448219 120.92673 148.17192zM512.104789 623.495702c-10.478919 0-19.071633 8.592714-19.071633 19.071633v244.577978c-28.712239 8.173557-50.089235 34.370856-50.927548 65.388457-0.419157 18.652476 6.49693 36.466639 19.281211 49.879656 12.784282 13.413017 30.179288 21.167417 48.831765 21.586574h1.676627c37.514531 0 68.951289-30.598445 69.789603-68.112976 0.419157-18.652476-6.49693-36.466639-19.281212-49.879656-8.802292-9.221449-19.700368-15.718379-31.646336-19.071633V642.357757c0.419157-10.478919-8.173557-18.862055-18.652477-18.862055z m31.855915 331.553009c-0.419157 17.185428-14.670487 31.017601-31.855915 31.017601h-0.838313c-8.592714-0.209578-16.347114-3.772411-22.215309-9.850184-5.868195-6.077773-9.011871-14.25133-8.802293-22.844044 0.419157-17.185428 14.670487-31.017601 31.855915-31.017602h0.838314c8.592714 0.209578 16.347114 3.772411 22.215309 9.850184 5.868195 6.077773 9.011871 14.25133 8.802292 22.844045z"
          fill="#fff" p-id="1984"></path>
</svg>