<?xml version="1.0" encoding="utf-8"?>
<svg version="1.1" id="Layer_1" xmlns="http://www.w3.org/2000/svg" xmlns:xlink="http://www.w3.org/1999/xlink" x="0px" y="0px"
	 viewBox="0 400 1024 250" >
    <path d="M533.941333 419.264c14.709333-1.621333 37.290667-3.264 68.352-3.264 51.872 0 93.802667 9.152 119.776 28.416 23.338667 17.952 38.858667 47.008 34.56 89.130667-3.978667 39.189333-24.042667 66.634667-53.312 83.594666C676.544 633.152 642.837333 640 592.106667 640c-29.888 0-58.421333-1.642667-80.106667-4.896l21.941333-215.84z m42.869334 172.938667c4.981333 0.992 11.562667 1.973333 24.533333 1.973333 51.882667 0 88.469333-25.877333 92.16-62.24 5.333333-52.554667-27.125333-70.944-81.802667-70.624-7.072 0-16.917333 0-22.133333 0.970667L576.8 592.213333h0.010667z m223.498666-164.704c210.954667-39.872 229.162667 31.776 222.645334 95.189333L1010.656 640h-66.944l11.210667-106.986667c2.421333-23.562667 17.504-69.653333-55.338667-67.914666-25.184 0.608-37.706667 4.064-37.706667 4.064s-2.186667 28.469333-4.832 49.514666L844.32 640H778.666667l13.024-119.573333"
          fill="#231916"></path>
    <path d="M226.634667 632.682667c-12.373333 4.341333-38.037333 7.317333-73.909334 7.317333C49.6 640-6.048 590.933333 0.522667 526.090667 8.416 448.810667 90.858667 405.333333 181.141333 405.333333c34.976 0 55.552 2.858667 74.858667 7.637334l-6.208 52.064c-12.821333-4.384-42.890667-8.405333-67.232-8.405334-53.141333 0-98.250667 16.042667-103.424 66.762667-4.608 45.354667 27.061333 67.04 86.816 67.04 20.8 0 51.477333-3.018667 65.653333-7.370667l-4.992 49.6 0.021334 0.021334z"
          fill="#C92027"></path>
    <path d="M272.714667 580.021333c19.285333 6.762667 59.488 13.504 92 13.504 35.029333 0 54.528-9.333333 56.096-23.797333 1.418667-13.205333-12.928-14.986667-52.490667-24.010667-54.666667-12.896-89.546667-32.842667-86.133333-64.704C286.176 443.989333 337.685333 416 416.725333 416c38.56 0 75.914667 2.613333 95.274667 8.714667l-6.656 46.666666c-12.565333-4.202667-60.672-10.037333-93.205333-10.037333-32.992 0-50.069333 9.973333-51.253334 20.917333-1.493333 13.845333 15.658667 14.485333 58.528 25.450667 58.026667 14.154667 83.402667 34.090667 80.085334 64.992C495.605333 609.109333 449.258667 640 356.714667 640c-38.528 0-71.744-6.762667-90.048-13.525333l6.048-46.453334z"
          fill="#231916"></path>
</svg>
