<?xml version="1.0" encoding="utf-8"?>
<!-- Generator: Adobe Illustrator 21.0.0, SVG Export Plug-In . SVG Version: 6.00 Build 0)  -->
<svg version="1.1" id="Layer_1" xmlns="http://www.w3.org/2000/svg" xmlns:xlink="http://www.w3.org/1999/xlink" x="0px" y="0px"
	 viewBox="0 0 263.7 85.8" style="enable-background:new 0 0 263.7 85.8;" xml:space="preserve">
<style type="text/css">
	.st0{fill:#666767;}
	.st1{fill:#999999;}
	.st2{fill:url(#SVGID_1_);}
	.st3{fill:url(#SVGID_2_);}
	.st4{fill:url(#SVGID_3_);}
</style>
<title>logo_color_didi</title>
<desc>Created with Sketch.</desc>
<g id="Page-1_1_">
	<g id="logo_color_didi" transform="translate(17.000000, 31.000000)">
		<g id="Page-1">
			<g id="滴滴logo-svg">
				<g id="Group_3_">
					<g id="Shape_16_" transform="translate(126.000000, 0.000000)">
						<g id="Group">
							<path id="Shape" class="st0" d="M-13.1-11.3c0,0-0.1,0-0.1,0c-0.1,0-0.1,0-0.2,0.1l-3,3.5c0,0.1-0.1,0.1-0.1,0.2
								s0,0.1,0.1,0.2c2.4,1.8,5.7,4.6,10.1,8.6c0,0,0.1,0.1,0.2,0.1c0.1,0,0.1,0,0.2-0.1c0.9-1,2.1-2.3,3.5-3.9
								c0,0,0.1-0.1,0.1-0.2c0-0.1,0-0.1-0.1-0.2C-6.7-6.6-10.3-9.4-13.1-11.3L-13.1-11.3L-13.1-11.3z"/>
							<path id="Shape_1_" class="st0" d="M-4.1,8.1c-1.6-0.5-3.2-1.2-4.9-2c0,0-0.1,0-0.1,0c0,0-0.1,0-0.1,0
								c-0.1,0-0.1,0.1-0.1,0.2c-1.8,9.1-3.8,16.9-5.8,23.1c0,0.1,0,0.1,0,0.2c0,0.1,0.1,0.1,0.1,0.1l5.3,1.6c0,0,0,0,0.1,0
								c0,0,0.1,0,0.1,0c0.1,0,0.1-0.1,0.1-0.2C-7.2,21.8-5.5,14.6-4,8.4C-3.9,8.3-4,8.2-4.1,8.1L-4.1,8.1L-4.1,8.1z"/>
							<path id="Shape_2_" class="st0" d="M-10.8-27.3c0,0-0.1-0.1-0.2-0.1c-0.1,0-0.1,0-0.2,0.1l-3.1,3.3c0,0-0.1,0.1-0.1,0.2
								c0,0.1,0,0.1,0.1,0.2C-10.9-21-7.8-18.1-5-15c0,0.1,0.1,0.1,0.2,0.1l0,0c0.1,0,0.1,0,0.2-0.1l3.5-3.7c0,0,0.1-0.1,0.1-0.2
								c0-0.1,0-0.1-0.1-0.2C-5-22.6-8.2-25.3-10.8-27.3L-10.8-27.3L-10.8-27.3z"/>
							<path id="Shape_3_" class="st0" d="M47.2-23.4H26.7l0-6.9c0-0.1-0.1-0.2-0.3-0.2h-5.7c-0.1,0-0.1,0-0.2,0.1
								c0,0-0.1,0.1-0.1,0.2l0,6.9H0c-0.1,0-0.2,0.1-0.2,0.2v3.6c0,0.1,0.1,0.2,0.2,0.2h8.7c0.3,0.7,0.6,1.6,1,2.5
								c0.7,1.8,1.4,3.9,2.3,5.7H7c-3.6-0.1-5.2,1.3-5.2,5.4v37.5C1.9,31.9,2,32,2.1,32h5.1c0.1,0,0.2-0.1,0.2-0.2V-4.7
								c0-1.5,0.6-2.1,2.1-2.1h11.2v5.9H10.5c-0.1,0-0.2,0.1-0.2,0.2v3.2c0,0.1,0.1,0.2,0.2,0.2h10.3v6.3h-8c-0.1,0-0.2,0.1-0.2,0.2
								v15.3c0,0.1,0.1,0.2,0.2,0.2h15.4c0.4,0,0.8,0,1.2,0c2.2,0,3.4-0.3,4.2-1.1c0.8-0.8,1.1-2.2,1-4.5V9.4c0-0.1-0.1-0.2-0.2-0.2
								h-8.2V2.8h10.5c0.1,0,0.2-0.1,0.2-0.2v-3.2c0-0.1-0.1-0.2-0.2-0.2H26.1v-5.9h11.2c1.7,0,2.1,0.9,2.1,2.7v29.2
								c0,1.7-1.3,2-2.5,2h-6.2c-0.1,0-0.1,0-0.2,0.1c0,0-0.1,0.1-0.1,0.2l0,4.1c0,0.1,0.1,0.2,0.2,0.2H39c3.9,0,5.9-1.9,5.9-5.6
								L45-5.4c0-4-1.2-5.7-6-5.6h-4.1c1.1-2.2,2.1-4.9,2.9-7.2c0.1-0.4,0.3-0.8,0.4-1.1h9c0.1,0,0.2-0.1,0.2-0.2v-3.6
								C47.4-23.3,47.3-23.4,47.2-23.4L47.2-23.4L47.2-23.4z M32.2-19.3c-0.5,1.2-1.9,4.7-2.7,6.9c-0.2,0.6-0.4,1.1-0.6,1.4H18.2
								c-0.2-0.4-0.6-1.4-1.3-2.9c-0.9-2-1.9-4.4-2.3-5.3H32.2L32.2-19.3L32.2-19.3z M17.9,21.5v-8.5h11.3v5.8
								c0,2.6-0.1,2.6-2.3,2.7l-0.3,0L17.9,21.5L17.9,21.5L17.9,21.5z"/>
						</g>
						<g id="Group_1_" transform="translate(74.000000, 0.000000)">
							<path id="Shape_4_" class="st0" d="M-13.8-11.7c0,0-0.1,0-0.1,0c-0.1,0-0.1,0-0.2,0.1l-3,3.5c0,0.1-0.1,0.1-0.1,0.2
								c0,0.1,0,0.1,0.1,0.2c2.4,1.8,5.7,4.6,10.1,8.6c0,0,0.1,0.1,0.2,0.1c0.1,0,0.1,0,0.2-0.1c0.9-1,2.1-2.3,3.5-3.9
								c0,0,0.1-0.1,0.1-0.2c0-0.1,0-0.1-0.1-0.2C-7.4-7.1-11-9.8-13.8-11.7L-13.8-11.7L-13.8-11.7z"/>
							<path id="Shape_5_" class="st0" d="M-4.8,7.7c-1.6-0.5-3.2-1.2-4.9-2c0,0-0.1,0-0.1,0s-0.1,0-0.1,0c-0.1,0-0.1,0.1-0.1,0.2
								c-1.8,9.1-3.8,16.9-5.8,23.1c0,0.1,0,0.1,0,0.2c0,0.1,0.1,0.1,0.1,0.1l5.3,1.6c0,0,0,0,0.1,0c0,0,0.1,0,0.1,0
								c0.1,0,0.1-0.1,0.1-0.2C-7.8,21.4-6.1,14.1-4.6,8C-4.6,7.8-4.7,7.7-4.8,7.7L-4.8,7.7L-4.8,7.7z"/>
							<path id="Shape_6_" class="st0" d="M-11.4-27.8c0,0-0.1-0.1-0.2-0.1c-0.1,0-0.1,0-0.2,0.1l-3.1,3.3c-0.1,0-0.1,0.1-0.1,0.2
								c0,0.1,0,0.1,0.1,0.2c3.2,2.7,6.3,5.6,9.2,8.6c0,0.1,0.1,0.1,0.2,0.1l0,0c0.1,0,0.1,0,0.2-0.1l3.5-3.7c0,0,0.1-0.1,0.1-0.2
								c0-0.1,0-0.1-0.1-0.2C-5.7-23.1-8.8-25.8-11.4-27.8L-11.4-27.8L-11.4-27.8z"/>
							<path id="Shape_7_" class="st0" d="M46.5-23.8H26.1l0-6.9c0-0.1-0.1-0.2-0.2-0.2h-5.7c-0.1,0-0.1,0-0.2,0.1
								c0,0-0.1,0.1-0.1,0.2l0,6.9H-0.7c-0.1,0-0.2,0.1-0.2,0.2v3.6c0,0.1,0.1,0.2,0.2,0.2H8c0.3,0.7,0.6,1.6,1,2.5
								c0.7,1.8,1.4,3.9,2.3,5.7h-5c-3.6-0.1-5.2,1.3-5.2,5.4v37.5c0,0.1,0.1,0.2,0.2,0.2h5.1c0.1,0,0.2-0.1,0.2-0.2V-5.2
								c0-1.5,0.6-2.1,2.1-2.1h11.2v5.9H9.8c-0.1,0-0.2,0.1-0.2,0.2v3.2c0,0.1,0.1,0.2,0.2,0.2h10.3v6.3h-8c-0.1,0-0.2,0.1-0.2,0.2
								v15.3c0,0.1,0.1,0.2,0.2,0.2h15.4c0.4,0,0.8,0,1.2,0c2.2,0,3.4-0.3,4.2-1.1c0.8-0.8,1.1-2.2,1-4.5V8.9c0-0.1-0.1-0.2-0.2-0.2
								h-8.2V2.4H36c0.1,0,0.2-0.1,0.2-0.2v-3.2c0-0.1-0.1-0.2-0.2-0.2H25.4v-5.9h11.2c1.7,0,2.1,0.9,2.1,2.7v29.2
								c0,1.7-1.3,2-2.5,2H30c-0.1,0-0.1,0-0.2,0.1s-0.1,0.1-0.1,0.2l0,4.1c0,0.1,0.1,0.2,0.2,0.2h8.3c3.9,0,5.9-1.9,5.9-5.6
								l0.1-31.4c0-4-1.2-5.7-6-5.6h-4.1c1.1-2.2,2.1-4.9,2.9-7.2c0.1-0.4,0.3-0.8,0.4-1.1h9c0.1,0,0.2-0.1,0.2-0.2v-3.6
								C46.7-23.7,46.6-23.8,46.5-23.8L46.5-23.8L46.5-23.8z M31.6-19.8c-0.5,1.2-1.9,4.7-2.7,6.9c-0.2,0.6-0.4,1.1-0.6,1.4H17.5
								c-0.2-0.4-0.6-1.4-1.3-2.9c-0.9-2-1.9-4.4-2.3-5.3H31.6L31.6-19.8L31.6-19.8z M17.3,21.1v-8.4h11.3v5.8
								c0,2.6-0.1,2.6-2.3,2.7l-0.3,0L17.3,21.1L17.3,21.1L17.3,21.1z"/>
						</g>
						<g id="Group_2_" transform="translate(0.000000, 74.000000)">
							<path id="Shape_8_" class="st1" d="M35.1-29.9v-0.9h12.5v0.9h-6.3v10.6h-1.2v-10.6H35.1L35.1-29.9L35.1-29.9z M46.5-24.1
								c-1.5-1-3-1.9-4.5-2.5l0-1c1.8,0.6,3.3,1.4,4.5,2.2V-24.1L46.5-24.1L46.5-24.1z"/>
							<path id="Shape_9_" class="st1" d="M63.8-22.8h4.8v-0.7h-5.1c0-0.1,0-0.2,0-0.4v-1.2h5.3v-0.7h-5.4v-1.6h4.4v-0.7h-4.4v-1.5
								h5v-0.7h-2.6c0.2-0.3,0.3-0.7,0.3-1.2H65c0,0.4-0.1,0.8-0.3,1.2H61c-0.1-0.3-0.2-0.7-0.3-1.2h-1.1c0.1,0.5,0.2,0.8,0.3,1.2
								h-2.6v0.7h5v1.5h-4.3v0.7h4.3v1.6h-5.3v0.7h5.3v1.2c0,0.1-0.1,0.3-0.1,0.4h-5.1v0.7H62c-0.7,1.2-2.5,2-5.2,2.4v0.9
								c2.8-0.4,4.8-1.3,6.1-2.7c1.2,1.4,3.2,2.3,6.1,2.7v-1C66.1-21.1,64.4-21.7,63.8-22.8L63.8-22.8L63.8-22.8z"/>
							<g id="Shape_10_">
								<g>
									<path class="st1" d="M-15.9-28.1c0.6,0.4,1.3,0.9,2.1,1.6c-0.3,0.3-0.5,0.6-0.7,0.8c-0.8-0.8-1.5-1.4-2-1.7L-15.9-28.1
										L-15.9-28.1L-15.9-28.1z"/>
									<path class="st1" d="M-15.1-24.6c0.3,0.2,0.7,0.3,1,0.4c-0.3,1.3-0.7,2.8-1.1,4.5l-1.1-0.3C-15.9-21.3-15.5-22.8-15.1-24.6
										L-15.1-24.6L-15.1-24.6z"/>
									<path class="st1" d="M-15.5-31.3c0.5,0.4,1.2,1,1.9,1.6l-0.7,0.7c-0.6-0.6-1.2-1.2-1.8-1.7L-15.5-31.3L-15.5-31.3
										L-15.5-31.3z"/>
								</g>
								<path class="st1" d="M-6.4-24h-4.3v3.1h3.1c1,0,1.3-0.1,1.2-1.1V-24L-6.4-24L-6.4-24z M-8-21.6h-1.8v-1.8h2.4v1.2
									C-7.4-21.6-7.4-21.6-8-21.6L-8-21.6L-8-21.6z"/>
								<path class="st1" d="M-3.8-29.8v-0.7h-4.1l0-1.3H-9l0,1.3h-4.3v0.7h1.8c0.2,0.4,0.4,1.2,0.7,1.8h-1.1c-0.7,0-0.9,0.3-1,1
									v7.5h1v-7.2c0-0.4,0.2-0.5,0.6-0.6h2.2v1.3h-2.1v0.6h2.1v1.4h1v-1.4h2.2V-26h-2.2v-1.3h2.2c0.4,0,0.5,0.2,0.5,0.6v5.8
									c0,0.3-0.2,0.4-0.5,0.4h-1.2v0.8h1.7c0.8,0,1.1-0.4,1.1-1.1l0-6.3c0-0.8-0.3-1.1-1.2-1.1h-0.9c0.3-0.5,0.5-1.2,0.7-1.8H-3.8
									L-3.8-29.8L-3.8-29.8z M-7.5-28.1h-2.2c0-0.1-0.7-1.5-0.8-1.8h3.7C-6.8-29.7-7.4-28.2-7.5-28.1L-7.5-28.1L-7.5-28.1z"/>
							</g>
							<g id="Shape_11_" transform="translate(18.000000, 0.000000)">
								<g>
									<path class="st1" d="M-16.2-28.1c0.5,0.4,1.3,0.9,2.1,1.6c-0.3,0.3-0.5,0.6-0.7,0.8c-0.9-0.8-1.5-1.4-2-1.7L-16.2-28.1
										L-16.2-28.1L-16.2-28.1z"/>
									<path class="st1" d="M-15.4-24.6c0.3,0.2,0.7,0.3,1,0.4c-0.3,1.3-0.7,2.8-1.1,4.5l-1.1-0.3C-16.1-21.3-15.7-22.8-15.4-24.6
										L-15.4-24.6L-15.4-24.6z"/>
									<path class="st1" d="M-15.7-31.3c0.5,0.4,1.2,1,1.9,1.6l-0.7,0.7c-0.6-0.6-1.2-1.2-1.8-1.7L-15.7-31.3L-15.7-31.3
										L-15.7-31.3z"/>
								</g>
								<path class="st1" d="M-6.7-24H-11v3.1h3.1c1,0,1.3-0.1,1.2-1.1V-24L-6.7-24L-6.7-24z M-8.3-21.6H-10v-1.8h2.4v1.2
									C-7.7-21.6-7.7-21.6-8.3-21.6L-8.3-21.6L-8.3-21.6z"/>
								<path class="st1" d="M-4.1-29.8v-0.7h-4l0-1.3h-1.1l0,1.3h-4.3v0.7h1.8c0.2,0.4,0.4,1.2,0.7,1.8h-1.1c-0.7,0-0.9,0.3-1,1
									v7.5h1v-7.2c0-0.4,0.2-0.5,0.6-0.6h2.2v1.3h-2.1v0.6h2.1v1.4h1v-1.4h2.2V-26h-2.2v-1.3h2.2c0.4,0,0.5,0.2,0.5,0.6v5.8
									c0,0.3-0.2,0.4-0.5,0.4h-1.2l0,0.8h1.7c0.8,0,1.1-0.4,1.1-1.1l0-6.3c0-0.8-0.3-1.1-1.1-1.1h-0.9c0.3-0.5,0.5-1.2,0.7-1.8
									H-4.1L-4.1-29.8L-4.1-29.8z M-7.7-28.1H-10c0-0.1-0.7-1.5-0.8-1.8h3.7C-7.1-29.7-7.7-28.2-7.7-28.1L-7.7-28.1L-7.7-28.1z"/>
							</g>
							<path id="Shape_12_" class="st1" d="M91.1-19.6v-5.3h1.1l0,4.4h4.2v-5.4h-4.9l0-5h1.1l0,4.1h3.7v-4.9h1.3v4.9h3.3
								c0.4,0,0.5-0.2,0.5-0.6v-3.5h1.1v4c-0.1,0.6-0.4,0.9-1,1h-4v5.4h3.7c0.4,0,0.5-0.2,0.5-0.5v-3.9h1.2v4.2c0,0.6-0.5,1-1.3,1
								L91.1-19.6L91.1-19.6L91.1-19.6z"/>
							<polygon id="Shape_13_" class="st1" points="18.8,-26.3 18.8,-27.3 30.2,-27.3 30.2,-26.3 							"/>
							<path id="Shape_14_" class="st1" d="M74.6-19.5l-0.8-0.6c0.9-0.7,1.7-1.6,2.3-2.6c-0.4-0.4-1.9-2-1.9-2l0.9-4.4H74v-0.8h1.3
								l0.3-1.8h1.1l-0.4,1.8l1.5,0c0.9,0,1,0.3,1,1.2c0,1-0.2,2-0.4,2.9c-0.4,1.6-1.1,2.9-1.1,2.9l2,2l-0.7,0.7
								c-0.5-0.5-1.2-1.1-1.8-1.7C76.4-21.1,75.6-20.3,74.6-19.5L74.6-19.5L74.6-19.5z M76.6-23.7c0.7-1.3,1.3-2.9,1.3-4.9
								c0-0.3-0.2-0.4-0.4-0.4h-1.3l-0.8,4C75.4-25,76.5-23.8,76.6-23.7L76.6-23.7L76.6-23.7z M86.3-25.4h-3.1v4.7
								c0,0.7-0.5,1-1.4,1l-2.4,0l0-0.9h1.8c0.6,0,0.8-0.2,0.8-0.7v-4.3h-3.2v-0.8H82v-1c1.1-1.1,1.9-1.9,2.7-2.7l-5.3,0v-0.9l5.8,0
								c0.5,0,1,0.6,0.4,1.2c-0.7,0.7-1.4,1.4-2.5,2.6l0,0.8h3.1V-25.4L86.3-25.4L86.3-25.4z"/>
							<path id="Shape_15_" class="st1" d="M109.7-19.3v-5.5c-0.2,0.2-0.4,0.5-0.8,0.9c0,0.1-0.1,0.1-0.1,0.2l-0.8-0.5
								c1-1.2,1.9-2.4,2.6-3.8h1c-0.4,1-0.9,1.9-0.9,1.9l0.1,6.9L109.7-19.3L109.7-19.3L109.7-19.3z M109-27.6l-0.8-0.5
								c0.9-1,1.6-2.2,2.3-3.5h1.1C110.8-30.1,110-28.8,109-27.6L109-27.6L109-27.6z M114.8-19.4l0-0.8h2c0.4,0,0.6-0.1,0.6-0.5
								v-5.7h-5.2v-0.8h8.5v0.8h-2.2v6.1c-0.1,0.6-0.4,0.9-1,1H114.8L114.8-19.4L114.8-19.4z M112.9-30.3v-0.9h7.2v0.9H112.9
								L112.9-30.3L112.9-30.3z"/>
						</g>
					</g>
					<g id="Shape_17_">
						
							<linearGradient id="SVGID_1_" gradientUnits="userSpaceOnUse" x1="-180.0227" y1="427.7847" x2="-180.0227" y2="428.7847" gradientTransform="matrix(105.7188 0 0 -85.7 19067.6406 36715.918)">
							<stop  offset="0" style="stop-color:#E58313"/>
							<stop  offset="1" style="stop-color:#EAA82D"/>
						</linearGradient>
						<path class="st2" d="M36.2,35.9c18.1-0.6,32.4-15,32.6-32.8l0-15.4h19.9v17c-0.4,27.6-24.4,49.4-52.5,50.1v0
							C7.6,54.6-16.6,32.6-17,4.7v-30.5c0-3.1,2-5.1,5.1-5.1l80.8,0v18.7l-63.3,0c-1.6,0-2.6,1-2.6,2.6V2.8
							C3.1,20.9,17.7,35.7,36.2,35.9L36.2,35.9L36.2,35.9L36.2,35.9z"/>
						
							<linearGradient id="SVGID_2_" gradientUnits="userSpaceOnUse" x1="-180.0227" y1="427.7848" x2="-180.0227" y2="428.7848" gradientTransform="matrix(105.7188 0 0 -85.702 19067.6445 36716.7852)">
							<stop  offset="0" style="stop-color:#E07D12"/>
							<stop  offset="1" style="stop-color:#EAA017"/>
						</linearGradient>
						<path class="st3" d="M67.4-29.5v15.7l-61.9,0c-2.4,0-4.1,1.6-4.1,4.1V2.8C1.5,12,5.2,20.6,11.7,27.1
							c6.5,6.5,15.1,10.2,24.4,10.3l0,0l0.2,0c18.9-0.6,33.8-15.6,34-34.3l0-13.9h17V4.7c-0.2,12.8-5.7,25-15.4,34.1
							c-9.6,9-22.2,14.2-35.5,14.5h-0.1C22.6,53.2,9.8,48.2,0,39.1c-9.8-9.2-15.4-21.4-15.6-34.4v-30.6c0-1.1,0.3-2,0.9-2.7
							c0.6-0.6,1.5-0.9,2.6-0.9h0.1L67.4-29.5L67.4-29.5L67.4-29.5z M68.8-30.9l-80.7,0H-12c-3,0-5,2-5,5.1V4.7
							c0.4,27.9,24.6,49.9,53.2,50.1v0c28.1-0.6,52.1-22.4,52.5-50.1v-17H68.8l0,15.4C68.6,21,54.3,35.4,36.2,35.9h0
							C17.7,35.7,3.1,20.9,2.9,2.8V-9.7c0-1.6,1-2.6,2.6-2.6l63.3,0L68.8-30.9L68.8-30.9L68.8-30.9L68.8-30.9z"/>
						
							<linearGradient id="SVGID_3_" gradientUnits="userSpaceOnUse" x1="-180.5227" y1="428.2847" x2="-179.5227" y2="428.2847" gradientTransform="matrix(105.7188 0 0 -85.7 19067.6406 36715.918)">
							<stop  offset="0" style="stop-color:#ECCC49;stop-opacity:0.1"/>
							<stop  offset="0.1413" style="stop-color:#ECCC49;stop-opacity:8.590000e-02"/>
							<stop  offset="1" style="stop-color:#ECCC49;stop-opacity:0"/>
						</linearGradient>
						<path class="st4" d="M36.2,35.9c18.1-0.6,32.4-15,32.6-32.8l0-15.4h19.9v17c-0.4,27.6-24.4,49.4-52.5,50.1v0
							C7.6,54.6-16.6,32.6-17,4.7v-30.5c0-3.1,2-5.1,5.1-5.1l80.8,0v18.7l-63.3,0c-1.6,0-2.6,1-2.6,2.6V2.8
							C3.1,20.9,17.7,35.7,36.2,35.9L36.2,35.9L36.2,35.9L36.2,35.9z"/>
					</g>
				</g>
			</g>
		</g>
	</g>
</g>
</svg>
