<?xml version="1.0" standalone="no"?><!DOCTYPE svg PUBLIC "-//W3C//DTD SVG 1.1//EN"
        "http://www.w3.org/Graphics/SVG/1.1/DTD/svg11.dtd">
<svg t="1483506794792" class="icon" style="" viewBox="0 0 1024 1024" version="1.1" xmlns="http://www.w3.org/2000/svg"
     p-id="2097" xmlns:xlink="http://www.w3.org/1999/xlink" width="200" height="200">
    <defs>
        <style type="text/css"></style>
    </defs>
    <path d="M393.540535 293.064325h242.773943c8.155197 0 14.637533-6.482336 14.637533-14.637533v-143.02961c0-7.946089-6.482336-14.637533-14.637533-14.637533H393.540535c-8.155197 0-14.637533 6.691444-14.637533 14.637533v143.02961c0 7.946089 6.482336 14.637533 14.637533 14.637533z"
          fill="#E25673" p-id="2098"></path>
    <path d="M1024 873.756177v-47.885644c0-26.765775-21.747192-48.512967-48.512967-48.512967h-35.96651v-66.914438c0-10.455381-8.573412-19.028793-19.028793-19.028793h-103.090056v-51.022258h55.413519c26.765775 0 48.512967-21.747192 48.512967-48.512967v-72.560343c0-26.765775-21.747192-48.512967-48.512967-48.512968h-55.413519v-79.460894c0-10.455381-8.573412-19.028793-19.028793-19.028793H533.642638v-60.432101h87.616092c26.765775 0 48.512967-21.747192 48.512967-48.512968v-113.12722c0-26.765775-21.747192-48.512967-48.512967-48.512967H408.387176c-26.765775 0-48.512967 21.747192-48.512967 48.512967v113.336328c0 26.765775 21.747192 48.512967 48.512967 48.512967h87.616091v60.432102H225.627119c-10.455381 0-19.028793 8.573412-19.028793 19.028793v79.460894H151.393915c-26.765775 0-48.512967 21.747192-48.512967 48.512967v72.560343c0 26.765775 21.747192 48.512967 48.512967 48.512967h55.413518v51.022259H103.50827c-10.455381 0-19.028793 8.573412-19.028793 19.028793v66.914437H48.512967c-26.765775 0-48.512967 21.747192-48.512967 48.512968v47.676536c0 26.765775 21.747192 48.512967 48.512967 48.512967h109.781499c26.765775 0 48.512967-21.747192 48.512967-48.512967v-47.885644c0-26.765775-21.747192-48.512967-48.512967-48.512967H122.537064v-48.094752h206.389217v48.094752h-35.96651c-26.765775 0-48.512967 21.747192-48.512967 48.512967v47.885644c0 26.765775 21.747192 48.512967 48.512967 48.512967h109.781499c26.765775 0 48.512967-21.747192 48.512967-48.512967v-47.885644c0-26.765775-21.747192-48.512967-48.512967-48.512967h-35.96651v-66.914438c0-10.455381-8.573412-19.028793-19.028793-19.028793H244.655912v-51.022258h55.413518c26.765775 0 48.512967-21.747192 48.512967-48.512967v-72.560343c0-26.765775-21.747192-48.512967-48.512967-48.512968H244.655912v-60.432101h251.347355v60.432101h-58.131917c-26.765775 0-48.512967 21.747192-48.512967 48.512968v72.560343c0 26.765775 21.747192 48.512967 48.512967 48.512967h148.675515c26.765775 0 48.512967-21.747192 48.512968-48.512967v-72.560343c0-26.765775-21.747192-48.512967-48.512968-48.512968h-52.695119v-60.432101h245.910557v60.432101h-55.413518c-26.765775 0-48.512967 21.747192-48.512967 48.512968v72.560343c0 26.765775 21.747192 48.512967 48.512967 48.512967h55.413518v51.022258h-103.090055c-10.455381 0-19.028793 8.573412-19.028793 19.028793v66.914438h-35.96651c-26.765775 0-48.512967 21.747192-48.512967 48.512967v47.885644c0 26.765775 21.747192 48.512967 48.512967 48.512967h109.781499c26.765775 0 48.512967-21.747192 48.512967-48.512967v-47.885644c0-26.765775-21.747192-48.512967-48.512967-48.512967h-35.96651v-48.094752h206.389218v48.094752h-35.96651c-26.765775 0-48.512967 21.747192-48.512968 48.512967v47.885644c0 26.765775 21.747192 48.512967 48.512968 48.512967h109.781498c26.556667 0 48.30386-21.747192 48.30386-48.512967z m-626.277313-610.176026v-113.336328c0-5.645906 4.809475-10.455381 10.455381-10.455381h213.080662c5.645906 0 10.455381 4.809475 10.455381 10.455381v113.336328c0 5.645906-4.809475 10.455381-10.455381 10.455381H408.387176c-5.855013 0-10.664488-4.809475-10.664489-10.455381zM168.958954 825.870533v47.885644c0 5.645906-4.809475 10.455381-10.45538 10.455381H48.512967c-5.645906 0-10.455381-4.809475-10.455381-10.455381v-47.885644c0-5.645906 4.809475-10.455381 10.455381-10.455381h109.781499c5.855013-0.209108 10.664488 4.600368 10.664488 10.455381z m244.237697 0v47.885644c0 5.645906-4.809475 10.455381-10.455381 10.455381h-109.781499c-5.645906 0-10.455381-4.809475-10.455381-10.455381v-47.885644c0-5.645906 4.809475-10.455381 10.455381-10.455381h109.781499c5.645906-0.209108 10.455381 4.600368 10.455381 10.455381z m-102.67184-306.551766v72.560343c0 5.645906-4.809475 10.455381-10.455381 10.455381H151.393915c-5.645906 0-10.455381-4.809475-10.455381-10.455381v-72.560343c0-5.645906 4.809475-10.455381 10.455381-10.455381h148.675515c5.645906 0 10.455381 4.809475 10.455381 10.455381z m286.477435 0v72.560343c0 5.645906-4.809475 10.455381-10.455381 10.455381h-148.675515c-5.645906 0-10.455381-4.809475-10.455381-10.455381v-72.560343c0-5.645906 4.809475-10.455381 10.455381-10.455381h148.675515c5.645906 0 10.455381 4.809475 10.455381 10.455381z m116.682051 72.560343v-72.560343c0-5.645906 4.809475-10.455381 10.45538-10.455381h148.675516c5.645906 0 10.455381 4.809475 10.455381 10.455381v72.560343c0 5.645906-4.809475 10.455381-10.455381 10.455381h-148.675516c-5.645906 0.209108-10.455381-4.600368-10.45538-10.455381z m28.229528 233.991423v47.885644c0 5.645906-4.809475 10.455381-10.455381 10.455381h-109.781499c-5.645906 0-10.455381-4.809475-10.455381-10.455381v-47.885644c0-5.645906 4.809475-10.455381 10.455381-10.455381h109.781499c5.645906-0.209108 10.455381 4.600368 10.455381 10.455381z m244.237696 47.885644c0 5.645906-4.809475 10.455381-10.455381 10.455381h-109.781498c-5.645906 0-10.455381-4.809475-10.455381-10.455381v-47.885644c0-5.645906 4.809475-10.455381 10.455381-10.455381h109.781498c5.645906 0 10.455381 4.809475 10.455381 10.455381v47.885644z"
          fill="#fff" p-id="2099"></path>
</svg>