<?xml version="1.0" encoding="UTF-8" standalone="no"?>
<svg
   xmlns:svg="http://www.w3.org/2000/svg"
   xmlns="http://www.w3.org/2000/svg"
   xmlns:xlink="http://www.w3.org/1999/xlink"
   version="1.1"
   style="fill:#6b9d34"
   width="232px"
   height="87px"
   viewBox="0 0 232 80"
   id="svg2">
  <path
     d="m 93.4079,19.8228 c 0,-0.396 -0.323,-0.72 -0.726,-0.72 h -7.214 c -0.394,0 -0.721,0.324 -0.721,0.72 v 37.543 c 0,0.401 0.327,0.727 0.721,0.727 h 7.214 c 0.403,0 0.726,-0.326 0.726,-0.727 z"
     id="path4" />
  <path
     d="m 28.7311,51.9253 c 0,0.634 -0.132,1.382 -0.58,1.86 -0.56,0.594 -1.525,0.635 -2.287,0.605 -0.956,0.036 -1.666,-0.138 -2.133,-0.517 -0.548,-0.322 -0.824,-0.972 -0.824,-1.948 v -26.741 c 0,-0.958 0.276,-1.618 0.824,-1.977 0.467,-0.308 1.177,-0.467 2.133,-0.467 0.687,0 1.545,0.041 2.141,0.427 0.658,0.417 0.718,1.315 0.726,2.017 z m 8.768,6.423 v -0.006 h -3.126 c -0.829,0 -1.273,-0.121 -1.329,-0.381 1.311,-0.484 2.374,-1.188 3.194,-2.114 0.775,-0.882 1.162,-2.014 1.162,-3.386 v -27.759 c 0,-1.34 -0.338,-2.431 -1.02,-3.284 -0.676,-0.881 -1.575,-1.567 -2.689,-2.058 -2.398,-0.923 -5.028,-1.367 -7.915,-1.33 -1.33,0 -2.66,0.092 -4,0.271 -1.354,0.238 -2.571,0.589 -3.663,1.059 -1.118,0.486 -2.013,1.169 -2.692,2.058 -0.791,0.847 -1.184,1.944 -1.184,3.278 v 27.77 c 0.058,2.499 1.362,4.225 3.921,5.175 1.11,0.489 2.344,0.839 3.723,1.053 1.35,0.271 2.696,0.406 4.049,0.406 1.018,0 1.981,-0.079 2.891,-0.243 0.056,1.08 0.395,1.976 1.04,2.686 0.611,0.738 1.923,1.127 3.923,1.163 h 3.715 c 0.402,0 0.727,-0.324 0.727,-0.727 v -2.906 c 0,-0.398 -0.325,-0.725 -0.727,-0.725"
     id="path6" />
  <path
     d="M 8.277,19.103 H 1.06 c -0.397,0 -0.722,0.323 -0.722,0.72 v 7.229 c 0,0.404 0.324,0.728 0.722,0.728 h 7.217 c 0.398,0 0.721,-0.324 0.721,-0.728 v -7.229 c 0,-0.397 -0.323,-0.72 -0.721,-0.72"
     id="path8" />
  <use
     xlink:href="#path4"
     transform="translate(-41.8774)"
     id="use10" />
  <path
     d="M 8.277,30.8667 H 1.06 c -0.397,0 -0.722,0.325 -0.722,0.727 v 25.775 c 0,0.398 0.325,0.724 0.722,0.724 h 7.217 c 0.398,0 0.721,-0.326 0.721,-0.726 v -25.773 c 0,-0.402 -0.323,-0.727 -0.721,-0.727"
     id="path12" />
  <path
     d="m 80.7878,20.0728 -0.003,-0.003 c 0.029,-0.079 0.048,-0.162 0.048,-0.248 0,-0.375 -0.289,-0.678 -0.652,-0.713 l 0.003,-0.004 h -0.035 c -0.014,0 -0.023,-0.002 -0.035,-0.002 h -7.335 c -0.295,0 -0.543,0.177 -0.657,0.429 h -0.002 v 0.003 c -0.005,0.017 -0.01,0.035 -0.016,0.047 0,0 -3.796,11.871 -4.158,13.896 -0.364,-2.025 -4.154,-13.896 -4.154,-13.896 -0.008,-0.012 -0.008,-0.03 -0.023,-0.047 v -0.003 h -0.002 c -0.112,-0.252 -0.357,-0.429 -0.654,-0.429 h -7.334 c -0.015,0 -0.023,0.002 -0.038,0.002 h -0.034 l 10e-4,0.004 c -0.36,0.035 -0.649,0.338 -0.649,0.713 0,0.086 0.021,0.169 0.046,0.248 l -0.005,0.003 8.535,23.693 v 13.577 0.026 c 0,0.398 0.323,0.721 0.719,0.721 h 3.064 1.056 3.065 c 0.398,0 0.723,-0.323 0.723,-0.721 0,-0.01 -0.004,-0.019 -0.004,-0.026 v -13.577 z"
     id="path14" />
  <path
     d="m 171.7663,26.2036 c -0.9,0 -1.536,0.481 -1.84,1.392 l -0.016,0.078 c -0.089,0.776 0.128,1.8 1.668,2.262 5.642,1.434 10.004,2.993 12.998,4.639 0.357,0.158 0.698,0.239 1.013,0.239 0.662,0 1.345,-0.27 1.623,-1.003 0.124,-0.337 0.143,-0.79 0.072,-1.087 -0.093,-0.396 -0.27,-0.776 -0.564,-1.061 -0.211,-0.21 -0.476,-0.402 -0.74,-0.548 -4.256,-2.176 -8.837,-3.812 -13.615,-4.851 -0.208,-0.04 -0.411,-0.06 -0.599,-0.06"
     id="path16" />
  <path
     d="m 152.7351,34.2954 c 8.887,-0.516 14.552,-3.286 16.845,-8.233 h 14.683 c 0.601,0 1.605,-0.248 1.605,-1.919 0,-1.539 -1.004,-1.773 -1.605,-1.773 h -13.815 c 0.119,-0.738 0.176,-1.2 0.19,-1.718 0.02,-0.664 -0.371,-1.381 -1.024,-1.591 -0.783,-0.25 -1.873,-0.155 -2.4,0.545 -0.158,0.208 -0.31,0.506 -0.361,0.764 0,0 -0.246,1.307 -0.344,1.895 -0.028,0.04 -0.049,0.071 -0.073,0.105 h -12.321 c -1.239,0 -1.919,0.629 -1.919,1.773 0,1.236 0.68,1.919 1.919,1.919 h 11.145 c -0.06,0 -0.282,0.322 -0.334,0.375 -0.113,0.125 -0.23,0.248 -0.345,0.372 -0.242,0.248 -0.491,0.488 -0.752,0.712 -0.576,0.494 -1.219,0.898 -1.902,1.232 -0.808,0.393 -1.666,0.683 -2.534,0.913 -1.026,0.27 -2.073,0.454 -3.127,0.595 -1.177,0.16 -2.366,0.265 -3.551,0.368 -0.827,0.068 -1.641,0.562 -1.878,1.392 -0.201,0.717 0.007,1.572 0.678,1.961 0.333,0.193 0.813,0.313 1.22,0.313"
     id="path18" />
  <path
     d="m 227.5046,46.6509 c -0.962,-0.002 -1.718,0.727 -1.887,1.645 -0.051,0.289 -0.08,0.603 -0.072,0.897 0.05,1.579 -0.002,2.92 -0.644,3.585 -0.695,0.72 -1.702,0.504 -2.874,0.541 h -13.051 c -6.712,0 -7.523,-1.068 -7.565,-1.547 -0.085,-0.585 1.426,-3.066 17.229,-13.465 1.061,-0.638 1.784,-1.097 2.217,-1.423 1.329,-1.036 1.305,-2.065 1.032,-2.788 -0.481,-0.957 -1.43,-1.444 -2.813,-1.444 h -21.446 c -1.805,0 -2.076,1.104 -2.076,1.808 0.09,0.786 0.548,1.724 2.23,1.724 h 17.216 c -8.412,5.279 -14.081,9.626 -16.891,12.935 0,0 -1.852,2.031 -1.011,4.2 0.437,1.136 1.455,2.076 3.201,2.733 2.003,0.734 5.499,1.109 10.384,1.109 h 11.941 c 3.075,0 4.084,-0.52 5.098,-1.591 1.271,-1.346 1.837,-3.556 1.662,-6.576 -0.079,-0.929 -0.418,-1.794 -1.29,-2.212 -0.193,-0.091 -0.388,-0.131 -0.59,-0.131"
     id="path20" />
  <path
     d="m 128.863,49.353 c -2.681,-1.462 -4.78,-3.176 -6.255,-5.114 h 11.401 c 0.06,0.089 0.083,0.188 0.079,0.305 -0.04,0.533 -0.777,1.857 -5.225,4.809 m -7.524,-14.55 h -7.372 c -0.405,0 -0.752,0.069 -1.043,0.2 0.009,-0.095 0.012,-0.198 0.012,-0.295 v -1.591 c -0.042,-0.379 0.003,-0.657 0.116,-0.785 0.024,-0.025 0.098,-0.106 0.338,-0.106 0.099,0 0.215,0.013 0.343,0.043 l 0.04,0.007 h 8.303 c -0.184,0.943 -0.43,1.788 -0.737,2.527 m 2.635,-10.294 c -0.05,0.477 0.03,0.886 0.243,1.213 0.561,1.127 0.963,2.034 1.208,2.71 h -5.388 c 0.162,-0.456 0.116,-0.916 -0.156,-1.361 -0.497,-0.913 -1.069,-1.772 -1.705,-2.562 z m 1.95,7.767 h 14.645 c 0.292,0 0.72,-0.017 0.697,0.411 -0.014,0.268 -0.458,1.414 -0.612,1.747 -0.068,0.21 -0.111,0.413 -0.134,0.604 -0.309,-0.141 -0.71,-0.235 -1.221,-0.235 h -13.816 c 0.369,-1.361 0.467,-2.096 0.441,-2.527 m 10.21,-8.591 c -0.107,0.14 -0.196,0.287 -0.274,0.443 l -0.01,0.022 -0.006,0.02 c -0.583,1.653 -1.458,3.082 -2.609,4.262 h -3.934 c -0.596,-1.679 -1.167,-3.053 -1.689,-4.109 3.28,-0.176 6.136,-0.389 8.522,-0.638 m 8.628,29.923 c -4.543,-0.289 -8.489,-1.184 -11.744,-2.658 2.378,-1.807 4.181,-3.867 5.366,-6.142 0.746,-1.553 0.875,-2.671 0.396,-3.439 -0.411,-0.645 -1.229,-0.966 -2.434,-0.966 h -12.911 c 0.276,-0.567 0.525,-1.207 0.752,-1.912 h 15.293 c 1.531,-0.14 1.947,-0.979 2.027,-1.647 0.037,0.016 0.134,0.069 0.158,0.075 0.272,0.089 0.53,0.134 0.766,0.134 0.524,0 1.242,-0.215 1.717,-1.295 1.129,-3.178 1.29,-5.271 0.49,-6.406 -0.432,-0.612 -1.129,-0.92 -2.071,-0.92 h -0.163 -4.619 c 0.35,-0.568 0.65,-1.168 0.907,-1.778 0.25,-0.6 0.535,-1.239 0.649,-1.879 0.063,-0.336 0.039,-0.694 -0.109,-1.006 -0.064,-0.125 -0.142,-0.245 -0.245,-0.351 0.994,-0.1 1.599,-0.103 2.56,-0.297 0.49,-0.101 1.02,-0.201 1.437,-0.482 0.507,-0.348 0.792,-1.092 0.705,-1.677 -0.088,-0.573 -0.417,-1.122 -0.966,-1.352 -0.28,-0.119 -0.648,-0.207 -0.955,-0.207 -0.105,0 -0.221,0.008 -0.356,0.023 -6.359,1.061 -13.285,1.599 -20.599,1.599 -2.618,0 -5.336,-0.068 -8.091,-0.208 -1.677,0 -2.138,0.856 -2.23,1.613 0,0.786 0.35,1.756 2.015,1.917 0.372,0.085 0.975,0.14 1.825,0.153 -0.046,0 -0.047,0.425 -0.047,0.464 0.012,0.191 0.057,0.37 0.129,0.544 0.318,0.755 1.007,1.27 1.431,1.952 0.248,0.399 0.448,0.724 0.594,0.972 h -4.337 c -1.302,0 -2.857,0.551 -2.857,3.166 v 3.11 c 0,1.235 0.682,1.916 1.927,1.916 0.269,0 0.512,-0.036 0.725,-0.113 0,0.018 -0.003,0.038 -0.009,0.06 0,1.119 0.672,1.8 1.921,1.92 h 6.109 c -2.433,5.126 -6.008,8.915 -10.646,11.286 -1.197,0.719 -1.523,1.719 -0.907,2.823 l 0.015,0.031 0.02,0.026 c 0.417,0.499 1.001,0.754 1.733,0.754 1.556,0 2.875,-1.163 4.093,-1.987 1.274,-0.854 2.449,-1.899 3.514,-3 0.299,-0.308 0.588,-0.629 0.865,-0.961 0.072,-0.081 0.835,-0.95 0.812,-0.977 1.67,1.968 3.595,3.677 5.74,5.096 -3.233,1.358 -7.104,2.144 -11.532,2.341 -0.787,0.069 -1.456,0.355 -1.876,1.036 -0.776,1.262 0.158,2.665 1.551,2.762 0.296,0.023 2.542,-0.178 3.678,-0.392 2.232,-0.417 4.436,-0.886 6.605,-1.575 0.961,-0.308 1.914,-0.645 2.838,-1.045 0.857,-0.373 1.687,-0.802 2.505,-1.248 0.041,-0.024 0.256,-0.171 0.288,-0.156 4.837,2.236 9.999,3.573 15.367,3.992 1.112,0 1.793,-0.617 1.92,-1.77 0,-1.113 -0.611,-1.794 -1.739,-1.919"
     id="path22" />
  <path
     d="m 152.7155,35.1128 c -1.218,0 -1.952,0.614 -2.075,1.726 -0.061,0.544 0.046,0.988 0.315,1.321 0.294,0.364 0.768,0.579 1.451,0.643 l 34.378,-0.004 c 1.118,-0.123 1.726,-0.799 1.726,-1.96 -0.123,-1.112 -0.809,-1.726 -1.918,-1.726 z M 178.7615,38 v 14.8648 c -0.017,0.311 -0.069,1.259 -2.511,1.259 -1.172,0 -2.735,-0.224 -4.653,-0.662 -0.211,-0.051 -0.416,-0.072 -0.602,-0.072 -0.802,0 -1.382,0.428 -1.693,1.258 -0.196,0.645 -0.175,1.18 0.062,1.589 0.221,0.369 0.602,0.617 1.143,0.736 2.354,0.526 4.382,0.789 6.025,0.789 3.773,0 5.761,-1.371 5.918,-4.1 V 38"
     id="path24" />
  <path
     d="m 230.2298,26.6541 c 0.524,0 1.429,-0.224 1.6,-1.721 l 0.008,-0.04 -0.008,-0.042 c -0.171,-1.493 -1.076,-1.715 -1.6,-1.715 h -35.146 c -0.6,0 -1.608,0.225 -1.608,1.757 0,1.528 1.008,1.761 1.608,1.761 z M 208.1438,25 v -4.4399 c 0,-0.6 -0.229,-1.604 -1.759,-1.604 -1.663,0 -1.912,1.004 -1.912,1.604 v 9.754 c 0,0.54 0.226,1.449 1.755,1.449 1.535,0 1.76,-0.909 1.76,-1.449 V 25 Z m 13.375,0 v -4.4399 c 0,-0.6 -0.225,-1.604 -1.759,-1.604 -1.664,0 -1.912,1.004 -1.912,1.604 v 9.754 c 0,0.54 0.228,1.449 1.758,1.449 1.531,0 1.76,-0.909 1.76,-1.449 V 25 Z"
     id="path26" />
  <path
     d="m 171.9372,48.187 c 0,0.619 -0.253,0.874 -0.876,0.874 h -12.443 c -0.623,0 -0.877,-0.255 -0.877,-0.874 v -2.97 c 0,-0.619 0.254,-0.874 0.877,-0.874 h 12.443 c 0.623,0 0.876,0.255 0.876,0.874 z m 3.071,-6.486 c -0.388,-0.413 -0.961,-0.644 -1.686,-0.707 h -16.961 c -0.728,0.063 -1.3,0.294 -1.688,0.707 -0.344,0.368 -0.545,0.859 -0.603,1.464 v 7.075 c 0.058,0.603 0.259,1.098 0.603,1.464 0.388,0.416 0.96,0.643 1.688,0.706 h 16.961 c 0.725,-0.063 1.298,-0.29 1.686,-0.706 0.341,-0.366 0.544,-0.861 0.603,-1.464 v -7.075 c -0.059,-0.605 -0.262,-1.096 -0.603,-1.464"
     id="path28" />
  <path
     d="m 91.738,8.9536 c -0.704,-1.49 -1.91,-2.987 -3.262,-3.901 -4.978,-3.366 -31.153,-4.578 -35.794,-4.65 -1.81,-0.028 -3.715,-0.037 -5.795,-0.035 H 46.79 c -0.031,0 -4.081,0.007 -5.89,0.035 -4.643,0.072 -30.817,1.284 -35.795,4.65 -1.35,0.914 -2.559,2.411 -3.261,3.901 -1.046,2.251 -1.443,5.376 -1.443,7.156 l 8.713,-0.013 c 0.026,-0.615 0.31,-2.312 1.019,-3.439 1.136,-1.802 3.292,-2.381 5.253,-2.665 7.931,-1.15 14.984,-1.753 22.416,-1.975 2.958,-0.085 8.957,-0.117 8.988,-0.117 0.034,0 0.064,-0.005 0.097,-0.005 2.967,-0.003 5.929,0.037 8.892,0.122 7.434,0.222 14.483,0.825 22.413,1.975 1.964,0.284 4.117,0.863 5.254,2.665 0.714,1.127 0.996,2.824 1.025,3.439 l 8.709,0.013 c 0,-1.78 -0.398,-4.905 -1.442,-7.156"
     id="path30" />
  <use
     xlink:href="#path30"
     transform="matrix(1,0,0,-1,0,77.30181)"
     id="use32" />
</svg>
