<?xml version="1.0" standalone="no"?><!DOCTYPE svg PUBLIC "-//W3C//DTD SVG 1.1//EN"
        "http://www.w3.org/Graphics/SVG/1.1/DTD/svg11.dtd">
<svg t="1483506918540" class="icon" style="" viewBox="0 0 1024 1024" version="1.1" xmlns="http://www.w3.org/2000/svg"
     p-id="2424" xmlns:xlink="http://www.w3.org/1999/xlink" width="200" height="200">
    <defs>
        <style type="text/css"></style>
    </defs>
    <path d="M423.610146 174.071387h177.692126v373.571563h-177.692126z" fill="#E25673" p-id="2425"></path>
    <path d="M19.099249 976.821695h985.877722c10.452478 0 19.02351-8.571032 19.02351-19.023509 0-3.553843-1.045248-7.107685-2.717644-9.82533l-95.535649-193.788941v-521.99675c0-10.452478-8.571032-19.02351-19.02351-19.02351h-210.094807c-10.452478 0-19.02351 8.571032-19.02351 19.02351s8.571032 19.02351 19.02351 19.02351h191.280347v488.54882h-750.487919v-488.54882h186.472207c10.452478 0 19.02351-8.571032 19.02351-19.02351s-8.571032-19.02351-19.02351-19.02351h-205.704766c-10.452478 0-19.02351 8.571032-19.02351 19.02351v521.99675l-97.208045 195.252288c-2.926694 5.853388-2.508595 12.752023 0.836198 18.396361 3.553843 5.644338 9.825329 8.989131 16.305866 8.989131z m362.282886-37.83797l16.723965-33.447929h228.282119l16.514915 33.447929h-261.520999z m-251.48662-161.38626h764.912338l79.438833 161.177211h-289.324591l-29.894087-60.833422c-3.135743-6.480536-9.825329-10.661528-16.933014-10.661528h-251.904719c-7.107685 0-13.797271 3.971942-16.933014 10.452478l-30.312186 60.833422h-289.324591l80.275031-160.968161z"
          fill="#fff" p-id="2426"></path>
    <path d="M620.116732 115.537511c0-37.628921-30.521236-68.359206-68.359206-68.359206h-79.020733c-37.628921 0-68.359206 30.521236-68.359206 68.359206v51.84429c0 1.254297 0.20905 2.299545 0.418099 3.344793-0.20905 1.045248-0.418099 2.299545-0.418099 3.344793V548.061049c0 0.836198 0.20905 1.881446 0.209049 2.717644 0 0.20905 0 0.418099 0.20905 0.836199 0.20905 1.045248 0.627149 2.090496 1.045248 3.135743 0.20905 0.20905 0.20905 0.418099 0.418099 0.836198 0.418099 0.836198 0.836198 1.463347 1.254297 2.090496 0.20905 0.20905 0.418099 0.627149 0.627149 0.836198s0.20905 0.418099 0.418099 0.627149l88.846063 116.440604c3.553843 4.59909 9.198181 7.525784 15.051568 7.525784s11.497726-2.717644 15.051568-7.525784l88.846063-116.440604c0.20905-0.20905 0.20905-0.418099 0.418099-0.627149 0.20905-0.20905 0.418099-0.627149 0.627149-0.836198 0.418099-0.627149 0.836198-1.463347 1.254297-2.090496 0.20905-0.20905 0.20905-0.418099 0.418099-0.836198 0.418099-1.045248 0.627149-2.090496 1.045248-3.135743 0-0.20905 0-0.418099 0.20905-0.836199 0.20905-0.836198 0.20905-1.881446 0.209049-2.717644v-374.616811c0-1.045248-0.20905-2.090496-0.209049-3.135743 0.20905-1.045248 0.20905-2.090496 0.209049-3.135743v-51.635241h-0.418099z m-177.483076 70.8678h51.008093v342.214129h-51.008093v-342.214129z m88.846063 0h51.008092v342.214129h-51.008092v-342.214129z m-88.846063-70.8678c0-16.723965 13.588221-30.312186 30.312186-30.312187h79.020734c16.723965 0 30.312186 13.588221 30.312186 30.312187v32.82078h-139.645106v-32.82078z m69.822553 517.397659l-50.589994-66.26871h100.970938l-50.380944 66.26871z"
          fill="#fff" p-id="2427"></path>
</svg>