<?xml version="1.0" encoding="UTF-8"?>
<svg xmlns="http://www.w3.org/2000/svg" xmlns:xlink="http://www.w3.org/1999/xlink" width="312pt" height="205pt" viewBox="0 0 312 205" version="1.1">
<g id="surface1">
<path style=" stroke:none;fill-rule:nonzero;fill:rgb(23.529412%,72.156863%,67.45098%);fill-opacity:1;" d="M 295.132812 131.023438 C 295.132812 133.757812 292.914062 135.972656 290.183594 135.972656 L 188.859375 135.972656 L 188.859375 21.003906 L 295.132812 21.003906 Z M 171.992188 2.761719 L 171.992188 154.210938 L 297.046875 154.210938 C 305.304688 154.210938 312 147.511719 312 139.246094 L 312 2.761719 Z M 171.992188 2.761719 "/>
<path style=" stroke:none;fill-rule:nonzero;fill:rgb(23.529412%,72.156863%,67.45098%);fill-opacity:1;" d="M 5.734375 176.140625 L 5.734375 180.292969 L 5.84375 180.292969 C 7.957031 177.089844 10.996094 175.484375 14.960938 175.484375 C 16.707031 175.484375 18.289062 175.855469 19.710938 176.574219 C 21.128906 177.308594 22.128906 178.542969 22.710938 180.292969 C 23.660156 178.765625 24.90625 177.582031 26.457031 176.742188 C 27.996094 175.902344 29.703125 175.484375 31.558594 175.484375 C 32.976562 175.484375 34.261719 175.640625 35.40625 175.953125 C 36.554688 176.261719 37.539062 176.742188 38.355469 177.394531 C 39.171875 178.054688 39.808594 178.894531 40.269531 179.9375 C 40.71875 180.976562 40.945312 182.230469 40.945312 183.679688 L 40.945312 204.398438 L 36.304688 204.398438 L 36.304688 185.867188 C 36.304688 184.992188 36.234375 184.179688 36.089844 183.414062 C 35.941406 182.644531 35.667969 181.984375 35.269531 181.417969 C 34.867188 180.851562 34.316406 180.40625 33.605469 180.074219 C 32.894531 179.75 31.980469 179.585938 30.847656 179.585938 C 28.558594 179.585938 26.75 180.238281 25.445312 181.550781 C 24.132812 182.863281 23.480469 184.613281 23.480469 186.800781 L 23.480469 204.398438 L 18.839844 204.398438 L 18.839844 185.867188 C 18.839844 184.953125 18.753906 184.117188 18.59375 183.355469 C 18.425781 182.589844 18.144531 181.925781 17.742188 181.359375 C 17.347656 180.796875 16.808594 180.355469 16.132812 180.046875 C 15.460938 179.734375 14.597656 179.585938 13.542969 179.585938 C 12.195312 179.585938 11.039062 179.855469 10.074219 180.40625 C 9.109375 180.949219 8.328125 181.605469 7.726562 182.367188 C 7.128906 183.140625 6.691406 183.929688 6.417969 184.746094 C 6.144531 185.566406 6.007812 186.25 6.007812 186.800781 L 6.007812 204.398438 L 1.367188 204.398438 L 1.367188 176.140625 Z M 5.734375 176.140625 "/>
<path style=" stroke:none;fill-rule:nonzero;fill:rgb(23.529412%,72.156863%,67.45098%);fill-opacity:1;" d="M 66.796875 184.453125 C 66.378906 183.464844 65.816406 182.617188 65.105469 181.910156 C 64.390625 181.195312 63.558594 180.628906 62.59375 180.214844 C 61.632812 179.789062 60.566406 179.585938 59.398438 179.585938 C 58.199219 179.585938 57.113281 179.789062 56.152344 180.214844 C 55.1875 180.628906 54.359375 181.203125 53.667969 181.9375 C 52.976562 182.667969 52.429688 183.511719 52.027344 184.472656 C 51.628906 185.4375 51.394531 186.472656 51.320312 187.566406 L 67.535156 187.566406 C 67.460938 186.472656 67.214844 185.429688 66.796875 184.453125 M 67.917969 202.59375 C 65.804688 204.199219 63.148438 205 59.945312 205 C 57.691406 205 55.734375 204.632812 54.078125 203.90625 C 52.417969 203.179688 51.027344 202.164062 49.902344 200.84375 C 48.773438 199.539062 47.925781 197.964844 47.363281 196.148438 C 46.796875 194.324219 46.480469 192.335938 46.40625 190.183594 C 46.40625 188.039062 46.730469 186.070312 47.390625 184.285156 C 48.046875 182.496094 48.964844 180.949219 50.148438 179.636719 C 51.328125 178.324219 52.730469 177.308594 54.351562 176.574219 C 55.96875 175.855469 57.746094 175.484375 59.675781 175.484375 C 62.183594 175.484375 64.265625 176.003906 65.925781 177.039062 C 67.582031 178.082031 68.90625 179.402344 69.910156 181.003906 C 70.910156 182.609375 71.601562 184.355469 71.984375 186.25 C 72.367188 188.148438 72.523438 189.949219 72.449219 191.664062 L 51.320312 191.664062 C 51.285156 192.898438 51.429688 194.074219 51.757812 195.191406 C 52.085938 196.296875 52.613281 197.285156 53.339844 198.136719 C 54.070312 199 54.996094 199.679688 56.125 200.1875 C 57.253906 200.703125 58.582031 200.957031 60.113281 200.957031 C 62.074219 200.957031 63.683594 200.5 64.941406 199.585938 C 66.199219 198.675781 67.027344 197.292969 67.421875 195.429688 L 72.011719 195.429688 C 71.394531 198.601562 70.027344 200.988281 67.917969 202.59375 "/>
<path style=" stroke:none;fill-rule:nonzero;fill:rgb(23.529412%,72.156863%,67.45098%);fill-opacity:1;" d="M 82.164062 204.398438 L 77.523438 204.398438 L 77.523438 176.140625 L 82.164062 176.140625 Z M 77.523438 165.375 L 82.164062 165.375 L 82.164062 171.058594 L 77.523438 171.058594 Z M 77.523438 165.375 "/>
<path style=" stroke:none;fill-rule:nonzero;fill:rgb(23.529412%,72.156863%,67.45098%);fill-opacity:1;" d="M 101.4375 176.140625 L 101.4375 180.238281 L 95.8125 180.238281 L 95.8125 197.789062 C 95.8125 198.332031 95.855469 198.765625 95.953125 199.089844 C 96.035156 199.425781 96.210938 199.679688 96.46875 199.863281 C 96.722656 200.042969 97.074219 200.15625 97.53125 200.214844 C 97.984375 200.269531 98.578125 200.296875 99.304688 200.296875 L 101.4375 200.296875 L 101.4375 204.398438 L 97.886719 204.398438 C 96.683594 204.398438 95.65625 204.316406 94.808594 204.152344 C 93.945312 203.992188 93.253906 203.6875 92.726562 203.25 C 92.199219 202.8125 91.808594 202.191406 91.558594 201.394531 C 91.300781 200.589844 91.167969 199.539062 91.167969 198.226562 L 91.167969 180.238281 L 86.371094 180.238281 L 86.371094 176.140625 L 91.167969 176.140625 L 91.167969 167.664062 L 95.8125 167.664062 L 95.8125 176.140625 Z M 101.4375 176.140625 "/>
<path style=" stroke:none;fill-rule:nonzero;fill:rgb(23.529412%,72.156863%,67.45098%);fill-opacity:1;" d="M 125.5625 204.398438 L 125.5625 199.910156 L 125.457031 199.910156 C 124.472656 201.667969 123.214844 202.953125 121.6875 203.769531 C 120.15625 204.589844 118.351562 205 116.28125 205 C 114.425781 205 112.878906 204.75 111.644531 204.265625 C 110.402344 203.769531 109.40625 203.070312 108.640625 202.160156 C 107.875 201.25 107.339844 200.15625 107.027344 198.90625 C 106.71875 197.648438 106.570312 196.246094 106.570312 194.722656 L 106.570312 176.140625 L 111.203125 176.140625 L 111.203125 195.269531 C 111.203125 197.023438 111.714844 198.398438 112.734375 199.425781 C 113.753906 200.445312 115.15625 200.957031 116.9375 200.957031 C 118.351562 200.957031 119.585938 200.738281 120.625 200.296875 C 121.660156 199.863281 122.523438 199.242188 123.214844 198.441406 C 123.910156 197.636719 124.429688 196.703125 124.773438 195.625 C 125.117188 194.554688 125.292969 193.375 125.292969 192.101562 L 125.292969 176.140625 L 129.933594 176.140625 L 129.933594 204.398438 Z M 125.5625 204.398438 "/>
<path style=" stroke:none;fill-rule:nonzero;fill:rgb(23.529412%,72.156863%,67.45098%);fill-opacity:1;" d="M 152.097656 190.761719 C 151.148438 190.960938 150.160156 191.121094 149.121094 191.257812 C 148.085938 191.382812 147.035156 191.523438 145.984375 191.695312 C 144.925781 191.855469 143.980469 192.121094 143.144531 192.484375 C 142.308594 192.851562 141.625 193.367188 141.09375 194.042969 C 140.570312 194.71875 140.304688 195.632812 140.304688 196.796875 C 140.304688 197.566406 140.460938 198.21875 140.769531 198.742188 C 141.082031 199.269531 141.480469 199.695312 141.96875 200.023438 C 142.457031 200.355469 143.042969 200.589844 143.71875 200.738281 C 144.390625 200.878906 145.070312 200.957031 145.769531 200.957031 C 147.296875 200.957031 148.605469 200.746094 149.695312 200.328125 C 150.789062 199.902344 151.679688 199.382812 152.371094 198.742188 C 153.066406 198.105469 153.570312 197.410156 153.898438 196.664062 C 154.222656 195.917969 154.386719 195.214844 154.386719 194.5625 L 154.386719 189.800781 C 153.804688 190.246094 153.046875 190.5625 152.097656 190.761719 M 158.597656 205 C 157.394531 205 156.441406 204.660156 155.726562 203.992188 C 155.023438 203.3125 154.664062 202.210938 154.664062 200.679688 C 153.390625 202.210938 151.90625 203.3125 150.214844 203.992188 C 148.523438 204.660156 146.695312 205 144.726562 205 C 143.457031 205 142.253906 204.863281 141.125 204.589844 C 139.992188 204.316406 139.007812 203.859375 138.152344 203.222656 C 137.292969 202.585938 136.617188 201.769531 136.132812 200.765625 C 135.640625 199.761719 135.394531 198.546875 135.394531 197.128906 C 135.394531 195.527344 135.664062 194.214844 136.203125 193.199219 C 136.757812 192.171875 137.480469 191.339844 138.367188 190.707031 C 139.261719 190.070312 140.277344 189.585938 141.417969 189.257812 C 142.570312 188.933594 143.746094 188.65625 144.945312 188.441406 C 146.21875 188.175781 147.429688 187.996094 148.578125 187.871094 C 149.726562 187.734375 150.730469 187.558594 151.609375 187.320312 C 152.480469 187.082031 153.167969 186.734375 153.679688 186.277344 C 154.1875 185.820312 154.445312 185.164062 154.445312 184.289062 C 154.445312 183.265625 154.253906 182.449219 153.875 181.824219 C 153.488281 181.203125 153 180.730469 152.398438 180.40625 C 151.796875 180.074219 151.121094 179.855469 150.378906 179.75 C 149.628906 179.636719 148.894531 179.585938 148.164062 179.585938 C 146.207031 179.585938 144.566406 179.960938 143.257812 180.707031 C 141.941406 181.449219 141.234375 182.863281 141.125 184.9375 L 136.484375 184.9375 C 136.558594 183.191406 136.921875 181.714844 137.582031 180.511719 C 138.234375 179.308594 139.101562 178.332031 140.199219 177.585938 C 141.289062 176.84375 142.542969 176.304688 143.964844 175.972656 C 145.382812 175.648438 146.875 175.484375 148.4375 175.484375 C 149.71875 175.484375 150.980469 175.578125 152.230469 175.761719 C 153.488281 175.933594 154.628906 176.3125 155.648438 176.875 C 156.664062 177.441406 157.480469 178.234375 158.105469 179.257812 C 158.726562 180.277344 159.03125 181.605469 159.03125 183.246094 L 159.03125 197.789062 C 159.03125 198.882812 159.09375 199.679688 159.222656 200.191406 C 159.347656 200.703125 159.777344 200.957031 160.503906 200.957031 C 160.90625 200.957031 161.378906 200.867188 161.921875 200.679688 L 161.921875 204.285156 C 161.128906 204.757812 160.011719 205 158.597656 205 "/>
<path style=" stroke:none;fill-rule:nonzero;fill:rgb(23.529412%,72.156863%,67.45098%);fill-opacity:1;" d="M 170.605469 176.140625 L 170.605469 180.621094 L 170.714844 180.621094 C 172.640625 177.195312 175.699219 175.484375 179.882812 175.484375 C 181.742188 175.484375 183.289062 175.742188 184.523438 176.246094 C 185.761719 176.761719 186.765625 177.472656 187.53125 178.378906 C 188.292969 179.289062 188.832031 180.371094 189.136719 181.632812 C 189.449219 182.894531 189.605469 184.285156 189.605469 185.816406 L 189.605469 204.398438 L 184.964844 204.398438 L 184.964844 185.269531 C 184.964844 183.519531 184.453125 182.132812 183.429688 181.113281 C 182.417969 180.09375 181.011719 179.585938 179.226562 179.585938 C 177.8125 179.585938 176.585938 179.800781 175.546875 180.238281 C 174.507812 180.671875 173.644531 181.296875 172.957031 182.101562 C 172.261719 182.898438 171.746094 183.835938 171.394531 184.914062 C 171.050781 185.988281 170.875 187.164062 170.875 188.441406 L 170.875 204.398438 L 166.238281 204.398438 L 166.238281 176.140625 Z M 170.605469 176.140625 "/>
<path style=" stroke:none;fill-rule:nonzero;fill:rgb(23.529412%,72.156863%,67.45098%);fill-opacity:1;" d="M 194.378906 44.59375 L 289.734375 44.59375 L 289.734375 60.613281 L 194.378906 60.613281 Z M 194.378906 44.59375 "/>
<path style=" stroke:none;fill-rule:nonzero;fill:rgb(23.529412%,72.156863%,67.45098%);fill-opacity:1;" d="M 203.6875 204.398438 L 197.628906 204.398438 L 197.628906 198.335938 L 203.6875 198.335938 Z M 203.6875 204.398438 "/>
<path style=" stroke:none;fill-rule:nonzero;fill:rgb(23.529412%,72.156863%,67.45098%);fill-opacity:1;" d="M 228.632812 181.0625 C 227.46875 180.074219 225.902344 179.585938 223.941406 179.585938 C 222.269531 179.585938 220.863281 179.894531 219.738281 180.511719 C 218.609375 181.136719 217.710938 181.953125 217.03125 182.972656 C 216.363281 183.992188 215.882812 185.167969 215.585938 186.5 C 215.292969 187.828125 215.152344 189.207031 215.152344 190.617188 C 215.152344 191.933594 215.308594 193.210938 215.621094 194.449219 C 215.925781 195.683594 216.402344 196.792969 217.0625 197.757812 C 217.71875 198.726562 218.574219 199.496094 219.628906 200.082031 C 220.683594 200.664062 221.941406 200.957031 223.394531 200.957031 C 225.6875 200.957031 227.476562 200.355469 228.769531 199.148438 C 230.0625 197.945312 230.859375 196.25 231.148438 194.070312 L 235.894531 194.070312 C 235.386719 197.566406 234.085938 200.261719 231.992188 202.164062 C 229.898438 204.054688 227.050781 205 223.445312 205 C 221.300781 205 219.398438 204.65625 217.746094 203.960938 C 216.085938 203.265625 214.699219 202.28125 213.597656 201.011719 C 212.480469 199.730469 211.648438 198.21875 211.085938 196.445312 C 210.519531 194.679688 210.234375 192.738281 210.234375 190.617188 C 210.234375 188.515625 210.519531 186.535156 211.054688 184.691406 C 211.597656 182.855469 212.433594 181.25 213.542969 179.886719 C 214.652344 178.523438 216.042969 177.441406 217.71875 176.65625 C 219.394531 175.875 221.339844 175.484375 223.558594 175.484375 C 225.15625 175.484375 226.660156 175.671875 228.0625 176.058594 C 229.464844 176.4375 230.703125 177.03125 231.777344 177.835938 C 232.855469 178.632812 233.726562 179.644531 234.425781 180.867188 C 235.113281 182.085938 235.546875 183.539062 235.734375 185.210938 L 230.933594 185.210938 C 230.570312 183.425781 229.800781 182.042969 228.632812 181.0625 "/>
<path style=" stroke:none;fill-rule:nonzero;fill:rgb(23.529412%,72.156863%,67.45098%);fill-opacity:1;" d="M 245.152344 194.863281 C 245.605469 196.1875 246.234375 197.304688 247.03125 198.195312 C 247.839844 199.089844 248.769531 199.769531 249.84375 200.242188 C 250.917969 200.722656 252.050781 200.957031 253.253906 200.957031 C 254.457031 200.957031 255.597656 200.722656 256.671875 200.242188 C 257.742188 199.769531 258.679688 199.089844 259.480469 198.195312 C 260.28125 197.304688 260.910156 196.1875 261.359375 194.863281 C 261.820312 193.53125 262.046875 192.011719 262.046875 190.296875 C 262.046875 188.582031 261.820312 187.0625 261.359375 185.726562 C 260.910156 184.410156 260.28125 183.285156 259.480469 182.367188 C 258.679688 181.460938 257.742188 180.761719 256.671875 180.292969 C 255.597656 179.820312 254.457031 179.585938 253.253906 179.585938 C 252.050781 179.585938 250.917969 179.820312 249.84375 180.292969 C 248.769531 180.761719 247.839844 181.460938 247.03125 182.367188 C 246.234375 183.285156 245.605469 184.410156 245.152344 185.726562 C 244.691406 187.0625 244.46875 188.582031 244.46875 190.296875 C 244.46875 192.011719 244.691406 193.53125 245.152344 194.863281 M 240.425781 184.472656 C 241.011719 182.671875 241.882812 181.105469 243.046875 179.769531 C 244.214844 178.445312 245.648438 177.394531 247.355469 176.636719 C 249.070312 175.871094 251.039062 175.484375 253.253906 175.484375 C 255.511719 175.484375 257.484375 175.871094 259.179688 176.636719 C 260.875 177.394531 262.300781 178.445312 263.464844 179.769531 C 264.632812 181.105469 265.496094 182.671875 266.089844 184.472656 C 266.667969 186.277344 266.957031 188.222656 266.957031 190.296875 C 266.957031 192.371094 266.667969 194.304688 266.089844 196.089844 C 265.496094 197.875 264.632812 199.4375 263.464844 200.765625 C 262.300781 202.09375 260.875 203.128906 259.179688 203.878906 C 257.484375 204.625 255.511719 205 253.253906 205 C 251.039062 205 249.070312 204.625 247.355469 203.878906 C 245.648438 203.128906 244.214844 202.09375 243.046875 200.765625 C 241.882812 199.4375 241.011719 197.875 240.425781 196.089844 C 239.84375 194.304688 239.550781 192.371094 239.550781 190.296875 C 239.550781 188.222656 239.84375 186.277344 240.425781 184.472656 "/>
<path style=" stroke:none;fill-rule:nonzero;fill:rgb(23.529412%,72.156863%,67.45098%);fill-opacity:1;" d="M 276.785156 176.140625 L 276.785156 180.292969 L 276.898438 180.292969 C 279.011719 177.089844 282.042969 175.484375 286.015625 175.484375 C 287.757812 175.484375 289.34375 175.855469 290.761719 176.574219 C 292.179688 177.308594 293.1875 178.542969 293.765625 180.292969 C 294.710938 178.765625 295.964844 177.582031 297.5 176.742188 C 299.046875 175.902344 300.746094 175.484375 302.609375 175.484375 C 304.027344 175.484375 305.316406 175.640625 306.457031 175.953125 C 307.597656 176.261719 308.582031 176.742188 309.40625 177.394531 C 310.222656 178.054688 310.863281 178.894531 311.3125 179.9375 C 311.773438 180.976562 312 182.230469 312 183.679688 L 312 204.398438 L 307.359375 204.398438 L 307.359375 185.867188 C 307.359375 184.992188 307.289062 184.179688 307.140625 183.414062 C 307 182.644531 306.71875 181.984375 306.320312 181.417969 C 305.925781 180.851562 305.367188 180.40625 304.660156 180.074219 C 303.945312 179.75 303.027344 179.585938 301.898438 179.585938 C 299.609375 179.585938 297.804688 180.238281 296.496094 181.550781 C 295.183594 182.863281 294.53125 184.613281 294.53125 186.800781 L 294.53125 204.398438 L 289.894531 204.398438 L 289.894531 185.867188 C 289.894531 184.953125 289.808594 184.117188 289.644531 183.355469 C 289.480469 182.589844 289.199219 181.925781 288.796875 181.359375 C 288.394531 180.796875 287.855469 180.355469 287.1875 180.046875 C 286.515625 179.734375 285.652344 179.585938 284.59375 179.585938 C 283.242188 179.585938 282.09375 179.855469 281.125 180.40625 C 280.15625 180.949219 279.378906 181.605469 278.777344 182.367188 C 278.179688 183.140625 277.742188 183.929688 277.46875 184.746094 C 277.195312 185.566406 277.0625 186.25 277.0625 186.800781 L 277.0625 204.398438 L 272.417969 204.398438 L 272.417969 176.140625 Z M 276.785156 176.140625 "/>
<path style=" stroke:none;fill-rule:nonzero;fill:rgb(23.529412%,72.156863%,67.45098%);fill-opacity:1;" d="M 100.652344 4.457031 C 102.5 1.765625 105.597656 0 109.105469 0 L 121.578125 0 L 118.214844 5.5625 L 109.160156 20.539062 L 103.347656 30.15625 L 85.117188 30.15625 Z M 100.652344 4.457031 "/>
<path style=" stroke:none;fill-rule:nonzero;fill:rgb(23.529412%,72.156863%,67.45098%);fill-opacity:1;" d="M 81.933594 96.078125 C 81.933594 96.078125 91.265625 121.441406 112.816406 129.4375 C 138.207031 138.863281 151.261719 137.328125 151.261719 137.328125 L 151.261719 154.144531 C 151.261719 154.144531 125.363281 155.050781 102.570312 142.894531 C 80.695312 131.226562 71.535156 113.59375 67.230469 106.949219 C 62.785156 100.09375 81.933594 96.078125 81.933594 96.078125 "/>
<path style=" stroke:none;fill-rule:nonzero;fill:rgb(23.529412%,72.156863%,67.45098%);fill-opacity:1;" d="M 37.292969 129.136719 C 15.421875 137 2.300781 136.863281 0 136.976562 L 0 154.210938 C 5.65625 154.210938 28.824219 151.414062 48.070312 142.910156 C 81.476562 128.132812 84.601562 98.847656 84.601562 86.832031 L 65.933594 86.832031 C 65.832031 96.964844 60.617188 120.746094 37.292969 129.136719 "/>
<path style=" stroke:none;fill-rule:nonzero;fill:rgb(23.529412%,72.156863%,67.45098%);fill-opacity:1;" d="M 149.929688 112.097656 L 1.265625 112.097656 L 1.265625 96.078125 L 149.929688 96.078125 Z M 149.929688 112.097656 "/>
<path style=" stroke:none;fill-rule:nonzero;fill:rgb(23.529412%,72.156863%,67.45098%);fill-opacity:1;" d="M 147.265625 33.34375 L 3.933594 33.34375 L 3.933594 17.988281 L 147.265625 17.988281 Z M 147.265625 33.34375 "/>
<path style=" stroke:none;fill-rule:nonzero;fill:rgb(23.529412%,72.156863%,67.45098%);fill-opacity:1;" d="M 139.265625 58.703125 L 11.933594 58.703125 L 11.933594 43.351562 L 139.265625 43.351562 Z M 139.265625 58.703125 "/>
<path style=" stroke:none;fill-rule:nonzero;fill:rgb(23.529412%,72.156863%,67.45098%);fill-opacity:1;" d="M 149.929688 84.066406 L 1.265625 84.066406 L 1.265625 68.714844 L 149.929688 68.714844 Z M 149.929688 84.066406 "/>
<path style=" stroke:none;fill-rule:nonzero;fill:rgb(23.529412%,72.156863%,67.45098%);fill-opacity:1;" d="M 84.488281 74.328125 L 66.707031 74.328125 L 66.707031 29.398438 L 84.488281 29.398438 Z M 84.488281 74.328125 "/>
<path style=" stroke:none;fill-rule:nonzero;fill:rgb(23.529412%,72.156863%,67.45098%);fill-opacity:1;" d="M 255.386719 75.953125 L 202.660156 122.023438 L 202.660156 100.035156 L 255.386719 53.96875 Z M 255.386719 75.953125 "/>
<path style=" stroke:none;fill-rule:nonzero;fill:rgb(23.529412%,72.156863%,67.45098%);fill-opacity:1;" d="M 254.832031 26.53125 L 254.832031 112.359375 L 254.828125 112.359375 L 254.828125 112.414062 C 254.796875 113.75 253.710938 114.832031 252.359375 114.832031 L 231.304688 114.832031 L 231.304688 130.445312 L 260.691406 130.445312 L 260.691406 130.433594 C 266.242188 130.324219 270.714844 125.847656 270.824219 120.289062 L 270.835938 120.289062 L 270.835938 26.53125 Z M 254.832031 26.53125 "/>
<path style=" stroke:none;fill-rule:nonzero;fill:rgb(23.529412%,72.156863%,67.45098%);fill-opacity:1;" d="M 50.777344 4.457031 C 48.929688 1.765625 45.835938 0 42.324219 0 L 29.851562 0 L 33.214844 5.5625 L 42.269531 20.539062 L 48.082031 30.15625 L 66.3125 30.15625 Z M 50.777344 4.457031 "/>
</g>
</svg>
