<?xml version="1.0" encoding="utf-8"?>
<!-- Generator: Adobe Illustrator 21.1.0, SVG Export Plug-In . SVG Version: 6.00 Build 0)  -->
<svg version="1.1" id="图层_1" xmlns="http://www.w3.org/2000/svg" xmlns:xlink="http://www.w3.org/1999/xlink" x="0px" y="0px"
	 width="130px" height="40.175px" viewBox="0 0 120 40.2" style="enable-background:new 0 0 500 40.2;" xml:space="preserve">
<style type="text/css">
	.st0{fill:#5C5C5C;}
	.st1{fill:#C1292E;}
	.st2{fill:#231815;}
	.st3{fill:#FF3333;}
	.st4{fill:url(#SVGID_1_);}
	.st5{fill:#E51419;}
	.st6{fill:#63ACE6;}
	.st7{fill:#FFFFFF;}
	.st8{fill:#3E3A39;}
	.st9{fill:#E10000;}
	.st10{opacity:0.8;fill:#FFEBEB;enable-background:new    ;}
	.st11{opacity:0.8;fill:#FFE9E9;enable-background:new    ;}
</style>
<g>
	<polygon class="st0" points="0.1,25.2 120.9,25.2 120.9,26.9 0.1,26.9 	"/>
	<path class="st1" d="M20.2,9.2c0.1-0.1,0.2-0.2,0.3-0.3c0-0.1,0-0.2,0-0.3c0-0.4,0-0.7,0.1-0.9c0-0.3,0.1-0.7,0-1.3
		c0-0.5-0.3-0.9-0.6-1.3c-0.9-0.8-1.7-1.1-2.3-0.9c-0.3,0.1-0.8,0.1-1.3,0C15.7,4,15,4.1,14.3,4.4c-0.3,0.1-0.5,0.2-0.7,0.2
		c-0.1,0-0.3,0-0.4,0c-0.1,0-0.1,0-0.1,0c-0.6,0.2-0.9,0.4-1.2,0.6c0,0,0,0.1-0.1,0.2c-0.3,0.6-0.4,0.9-0.4,1.2
		c0.1,0.5,0.1,0.9,0.1,1.1c0,0.5,0.1,0.9,0.2,1.2c0,0,0,0,0,0l0.1,0c0.3,0.2,0.6,0.4,0.8,0.6c0,0,0.1,0.1,0.1,0.1
		c0.2-0.1,0.4-0.1,0.6-0.1c0.2,0,0.5,0,0.7,0c0.2-0.1,0.4-0.1,0.6,0c0.3,0,0.5,0,0.6-0.1c0.2-0.1,0.5-0.1,0.9-0.1h0
		c0.2-0.1,0.3-0.2,0.3-0.2c0.1-0.1,0.1-0.1,0.2-0.2c0-0.1,0.1-0.2,0.1-0.3c0.1-0.1,0.1-0.3,0.2-0.5c0-0.2,0-0.4-0.1-0.6
		c0-0.2,0-0.4,0-0.5c0.1-0.3,0.2-0.5,0.2-0.7c0-0.4,0.1-0.7,0.4-0.9c0.3-0.3,0.6-0.4,0.8-0.3c0.2,0,0.3,0.2,0.4,0.4
		c0.1,0.3,0.2,0.6,0.2,0.9c0,0.3-0.1,0.5-0.2,0.7c-0.1,0.2-0.2,0.4-0.4,0.6c-0.2,0.2-0.3,0.5-0.3,0.9c0,0.1,0,0.2-0.1,0.3
		c0.1,0.1,0.1,0.1,0.1,0.2c0,0,0,0,0.1,0.1c0.2,0,0.5,0,0.8,0.1c0.3,0,0.6,0,0.8,0c0,0,0.1,0,0.1,0C20.1,9.3,20.2,9.2,20.2,9.2
		C20.2,9.2,20.2,9.2,20.2,9.2L20.2,9.2z M15.1,12.7c0,0,0-0.1,0-0.1c0-0.2,0-0.3,0-0.5c0-0.1,0-0.2,0-0.3c0-0.1,0-0.2,0-0.3
		c-0.1-0.1-0.1-0.1-0.2-0.1c-0.2-0.1-0.4-0.2-0.6-0.2h0c-0.3,0.1-0.5,0.2-0.7,0.2c-0.2,0-0.4,0.1-0.5,0.1c-0.1,0-0.1,0.1-0.2,0.1
		c-0.2,0.1-0.3,0.2-0.4,0.3c-0.1,0.1-0.1,0.2-0.2,0.3c0,0.3-0.1,0.6-0.1,0.8C12,13.1,12,13.3,12,13.6c0.2-0.2,0.4-0.4,0.7-0.4
		c0.3-0.1,0.5-0.1,0.6-0.1c0.2,0,0.4,0,0.6,0c0.2-0.1,0.4-0.1,0.5,0c0,0,0,0,0.1,0C14.8,12.9,15,12.8,15.1,12.7L15.1,12.7z
		 M22.8,19.8c0.1,0.4,0.1,0.7,0,1c-0.1,0.2-0.1,0.3-0.1,0.4c-0.1,0.2-0.1,0.3-0.2,0.4C22.2,21.9,22,22,21.6,22
		c-0.3,0-0.5-0.2-0.7-0.4c-0.2-0.3-0.3-0.6-0.3-0.8c0-0.2,0-0.4-0.1-0.5c0-0.1,0-0.3,0-0.4c0-0.2,0-0.4,0-0.6
		c-0.1-0.5-0.2-0.9-0.1-1.1c0.1-0.7,0.1-1.5,0-2.2c0-0.2,0-0.4,0-0.5c0-0.2,0-0.5,0-0.8c0-0.4,0-0.8,0-1c0.1-0.3,0.1-0.7,0-1
		c0-0.2-0.1-0.4-0.1-0.7c-0.1-0.2-0.3-0.3-0.4-0.3c-0.2-0.2-0.3-0.3-0.4-0.4c0,0-0.1,0-0.1,0c-0.5-0.2-1-0.2-1.5-0.1
		c-0.2,0.1-0.4,0.1-0.6,0.1c-0.2,0-0.3,0.1-0.4,0.1c-0.1,0-0.2,0.1-0.2,0.2c0,0,0,0.1,0,0.1c0,0.2,0,0.4,0,0.6c0,0.1,0,0.3-0.1,0.4
		c0,0,0,0.1,0,0.1c0.1,0.2,0.3,0.3,0.4,0.4c0,0,0,0,0,0.1c0.2,0,0.5,0,0.8,0c0.3,0,0.6,0,0.8,0c0.3,0,0.5,0.1,0.8,0.3
		c0.3,0.2,0.4,0.4,0.4,0.8c0,0.3-0.1,0.5-0.5,0.7c-0.4,0.1-0.9,0.1-1.4,0c-0.4-0.1-0.7-0.1-1.1,0c-0.3,0.1-0.6,0.1-0.8,0h0
		c-0.7,0.2-1.1,0.4-1.4,0.6l0,0c0,0.3,0,0.6-0.1,1c0,0.2,0,0.3,0,0.4c0,0.1,0,0.3,0,0.5c0,0.2,0,0.4,0.1,0.5c0,0.1,0.1,0.2,0.1,0.2
		c0.2,0.1,0.3,0.3,0.2,0.6c-0.1,0.2-0.3,0.4-0.5,0.5c-0.1,0-0.2,0-0.3,0c-0.1,0-0.2-0.1-0.4-0.1c-0.3-0.1-0.6-0.4-0.8-0.9
		c-0.1-0.7-0.2-1.2-0.1-1.6c0-0.2,0.1-0.4,0.1-0.5c0-0.1,0-0.1,0-0.2c0-0.1-0.1-0.2-0.1-0.3c-0.1-0.1-0.1-0.2-0.1-0.2
		c-0.1,0-0.3,0-0.4,0c-0.1-0.1-0.3-0.2-0.4-0.2c0,0,0,0.1,0,0.1c0,0.2,0,0.5-0.1,0.8c-0.1,0.3-0.2,0.5-0.1,0.7c0,0.2,0,0.3,0,0.4
		c0,0.1-0.1,0.2,0,0.4c0,0.1,0,0.3-0.1,0.5c-0.1,0.2-0.1,0.4-0.1,0.6c0,0.1,0,0.3-0.1,0.5c-0.2,0.6-0.4,1.1-0.5,1.5
		c-0.1,0.2-0.2,0.5-0.4,0.7c-0.3,0.3-0.6,0.4-0.8,0.4c-0.2,0-0.4,0-0.7-0.2c-0.2-0.2-0.4-0.4-0.4-0.6c0-0.2-0.1-0.4,0-0.6
		c0.1-0.2,0.1-0.4,0.2-0.6c0.1-0.1,0.3-0.3,0.4-0.6c0.3-0.3,0.4-0.6,0.4-0.8c0-0.2,0.1-0.3,0.1-0.4c0.1-0.4,0.3-0.7,0.3-1
		c0.1-0.2,0.1-0.4,0.1-0.6c0-0.7,0.1-1.3,0.4-1.9c0.1-0.4,0.2-0.8,0.1-1.1c0-0.3,0.1-0.5,0.1-0.6c0.1-0.2,0.1-0.5,0.1-0.7
		c-0.1-0.4-0.1-0.8,0-1.1c0-0.3,0-0.9-0.1-1.8c0-0.5-0.2-0.9-0.4-1.2c-0.3-0.4-0.5-1-0.5-1.6c-0.1-0.7,0-1.3,0.3-1.9
		c0.3-0.7,0.5-1,0.8-1.2c0.4-0.2,0.7-0.2,1,0c0,0,0,0,0,0c0.1,0,0.2,0,0.3,0c0.1,0,0.3,0,0.4,0c0.4-0.1,0.8-0.2,1.1-0.1
		c0.3,0.1,0.5,0.1,0.6,0c0.3-0.2,0.6-0.2,0.8-0.2c0.1,0,0.2,0,0.4-0.1c0.4-0.2,0.7-0.2,1-0.1c0.3,0.1,0.6,0.1,0.9,0
		c0.5-0.1,1-0.1,1.3,0c0.2,0,0.4,0,0.6,0c0.2,0,0.3,0.1,0.4,0.2c0.2,0.1,0.4,0.2,0.6,0.1c0.3,0,0.5,0,0.6,0.1
		c0.2,0.1,0.4,0.2,0.4,0.3c0.1,0.2,0.2,0.3,0.5,0.5c0.4,0.2,0.7,0.6,0.8,1.1c0.1,0.3,0.1,0.6,0,0.9c0,0.2-0.1,0.4-0.2,0.5
		c-0.1,0.1-0.2,0.3-0.2,0.4c0,0.2,0,0.3-0.1,0.4c-0.1,0.2-0.1,0.4-0.1,0.5c0.1,0.1,0.1,0.3,0,0.5c-0.1,0.6-0.1,1.1-0.1,1.8
		c0,0.4-0.1,0.8-0.2,1c0,0.1,0,0.4,0,0.6c0,0.2,0,0.5,0,0.8c-0.1,0.2-0.1,0.5,0,0.8c0.1,0.6,0.1,1.2,0.1,1.6
		c-0.1,0.8-0.1,1.3,0.1,1.7c0.3,1,0.5,1.7,0.5,2.3C22.7,19.1,22.7,19.5,22.8,19.8L22.8,19.8z M16.9,17.5c0.1,0,0.3-0.1,0.6-0.1
		c0.3,0,0.5-0.1,0.6-0.1c0.3-0.1,0.7-0.1,1,0.1c0.3,0.1,0.4,0.4,0.5,0.7c0,0.4-0.1,0.6-0.3,0.8c-0.3,0.2-0.8,0.3-1.3,0.2
		c-0.2,0-0.3,0-0.3,0c-0.1,0-0.2,0-0.3,0c-0.1,0-0.2,0-0.3,0.1c-0.3,0.1-0.7,0.1-1.1,0c-0.2-0.1-0.4-0.4-0.4-0.6
		c0-0.2,0.1-0.4,0.2-0.6c0.2-0.2,0.4-0.4,0.7-0.4C16.6,17.6,16.7,17.5,16.9,17.5L16.9,17.5z M13.5,6.1c0.1-0.1,0.1-0.1,0.2-0.2
		c0-0.1,0.2-0.2,0.5-0.2c0.2,0,0.5,0.1,0.6,0.3c0.2,0.3,0.3,0.5,0.3,0.7c0,0.1,0.1,0.2,0.1,0.3c0,0.1,0,0.2,0,0.3
		c0,0.2,0.1,0.4,0.1,0.5c0,0.1,0,0.3-0.1,0.5c-0.1,0.3-0.3,0.4-0.4,0.5c-0.2,0.1-0.3,0-0.6-0.3c-0.4-0.2-0.5-0.5-0.6-0.7
		c-0.2-0.4-0.3-0.6-0.3-0.8c0-0.1,0-0.3-0.1-0.5C13.4,6.2,13.4,6.1,13.5,6.1L13.5,6.1z M5.5,9.7C5.5,9.7,5.4,9.7,5.5,9.7
		C5.3,9.8,5.1,9.9,4.8,9.9c-0.2,0-0.4,0.2-0.4,0.4c-0.1,0.3-0.4,0.6-0.7,0.8c-0.2,0.1-0.3,0.3-0.3,0.5c0,0.3-0.1,0.5-0.3,0.6
		c-0.2,0.2-0.3,0.4-0.3,0.5C2.9,13,3,13.3,3.3,13.6c0.2,0.1,0.4,0.2,0.6,0.2c0.2,0,0.4,0.1,0.5,0.1C4.5,14,4.7,14,4.8,13.9
		c0.2-0.1,0.4-0.1,0.5-0.1c0.2,0,0.4,0,0.7-0.1c0.3-0.1,0.5-0.3,0.7-0.6c0,0,0,0,0,0c0-0.3,0-0.5,0.1-0.7C6.9,12.2,7,11.9,7,11.6
		c0-0.3-0.1-0.5-0.2-0.6c0-0.1-0.1-0.1-0.1-0.3c-0.1-0.2-0.2-0.3-0.3-0.4c-0.1-0.1-0.1-0.1-0.1-0.2c0-0.1-0.1-0.1-0.1-0.1
		C5.9,9.8,5.7,9.8,5.5,9.7L5.5,9.7z M1.1,13.6c0-0.2,0-0.4-0.1-0.6c-0.1-0.3,0-0.5,0.2-0.8c0.2-0.6,0.5-0.9,0.7-1
		c0.2-0.1,0.3-0.2,0.3-0.5c0-0.2,0.1-0.5,0.3-0.8c0.1-0.3,0.1-0.6,0-0.8c0-0.1-0.1-0.3-0.2-0.4C2.3,8.4,2.2,8.4,2.1,8.3
		C1.8,8.2,1.7,8.1,1.6,8C1.5,7.9,1.4,7.8,1.3,7.8C1.2,7.7,1.2,7.6,1.2,7.4c0-0.1,0-0.2-0.1-0.3C0.9,7,0.8,6.9,0.8,6.7
		c0-0.5,0-0.8,0.1-0.8c0.1-0.1,0.2-0.2,0.1-0.3c0-0.2,0.1-0.5,0.4-1C1.8,4,2,3.6,2.1,3.5c0.1,0,0.1-0.2,0.2-0.3
		c0.1-0.1,0.2-0.2,0.3-0.3c0.1-0.1,0.2-0.2,0.2-0.3c0-0.1,0.1-0.3,0.2-0.3c0.1,0,0.2-0.1,0.3-0.3c0.3-0.5,0.5-0.7,0.6-0.7
		c0.1,0,0.3,0,0.4-0.1C4.4,1,4.6,1,4.9,1.1c0.2,0.1,0.3,0.1,0.4,0.1c0.3-0.1,0.6,0,0.9,0.2c0.4,0.3,0.6,0.6,0.6,0.9
		c0,0.3,0,0.5-0.1,0.5C6.5,3,6.3,3.1,6.1,3.1c-0.2,0-0.3,0-0.4,0.1C5.6,3.2,5.4,3.3,5.2,3.3c-0.1,0-0.3,0-0.4,0.1
		C4.7,3.4,4.7,3.5,4.6,3.5c-0.1,0-0.2,0-0.3,0.1C4.2,3.8,4.1,3.9,4.1,4C4,4.2,4,4.3,3.9,4.4C3.8,4.5,3.7,4.6,3.6,4.8
		C3.5,5,3.4,5.2,3.4,5.2C3.3,5.3,3.2,5.5,3.1,5.9c-0.2,0.4-0.3,0.8-0.2,1c0.2,0.3,0.3,0.5,0.4,0.5c0.1,0,0.2,0.1,0.2,0.1
		c0,0.1,0.2,0.2,0.4,0.2c0.2,0,0.3,0.1,0.3,0.1C4.5,8,4.7,8,4.9,7.8C5,7.7,5.1,7.6,5.2,7.6c0.2,0,0.3-0.1,0.4-0.3
		C5.7,7.1,5.7,7,5.8,7C6,6.9,6.1,6.7,6.1,6.5c0.1-0.2,0.1-0.3,0.2-0.4C6.5,6,6.5,5.8,6.4,5.7c0-0.1-0.2-0.3-0.5-0.4
		C5.8,5.2,5.8,5,5.9,4.7C6,4.6,6.1,4.5,6.4,4.5c0.1,0,0.2-0.1,0.3-0.1c0.1-0.1,0.2-0.1,0.4,0c0.1,0.1,0.2,0.1,0.4,0.1
		c0.5,0,0.8,0.2,1.1,0.6c0.2,0.2,0.2,0.4,0.2,0.5c-0.1,0.1-0.1,0.3,0,0.5c0.1,0.2,0.1,0.4,0,0.6C8.7,7,8.5,7.2,8.4,7.2
		C8,7.3,7.6,7.5,7.4,7.7C7.3,7.8,7.2,8,7.2,8.1c0,0.1-0.1,0.2-0.1,0.3c0,0.1,0,0.1,0,0.1c0,0.2,0.1,0.4,0.1,0.6c0,0,0,0,0.1,0.1
		c0,0.1,0.1,0.2,0.2,0.2c0.2,0.1,0.3,0.2,0.3,0.4C7.8,9.9,7.9,10,8,10.2c0.1,0.1,0.2,0.2,0.3,0.4c0.1,0.3,0.2,0.7,0.2,0.9
		c0,0.4,0.1,0.6,0.2,0.8c0.1,0.2,0.1,0.4,0.1,0.6c0,0.4-0.1,0.7-0.3,0.9C8.3,13.9,8.2,14,8,14.1c-0.1,0.1-0.2,0.2-0.4,0.3
		c-0.3,0.2-0.6,0.4-0.8,0.7c-0.3,0.4-0.8,0.6-1.4,0.6c-0.2,0-0.5,0-0.7,0.1c-0.3,0.1-0.5,0-0.8-0.1c-0.3-0.2-0.6-0.3-0.9-0.2
		c-0.5,0-0.9-0.1-1.4-0.5C1.3,14.3,1.1,13.9,1.1,13.6L1.1,13.6z M6.9,16.4c0.1-0.1,0.2-0.1,0.2-0.2C7.2,16,7.4,16,7.7,16
		c0.3,0,0.5,0.1,0.6,0.3c0.2,0.3,0.3,0.5,0.3,0.8c0,0.1,0.1,0.2,0.1,0.3c0,0.1,0,0.2,0,0.3c0.1,0.2,0.1,0.4,0.1,0.5
		c0,0.2,0,0.3-0.1,0.5c-0.1,0.3-0.3,0.5-0.5,0.5c-0.2,0.1-0.4,0-0.6-0.3c-0.3-0.3-0.5-0.5-0.6-0.8c-0.2-0.4-0.3-0.7-0.3-0.8
		c0-0.1,0-0.3-0.1-0.6C6.8,16.6,6.9,16.4,6.9,16.4L6.9,16.4z M4.3,17.2c0.1,0,0.2-0.1,0.3-0.1c0.1-0.1,0.2-0.1,0.6,0
		c0.2,0.1,0.4,0.2,0.5,0.4c0.1,0.3,0.1,0.6,0.1,0.8c0,0.4,0,0.8,0.1,1.2c0,0.3,0,0.7-0.2,1c0,0.2,0,0.4-0.1,0.5
		c0,0.1-0.1,0.3-0.2,0.5c-0.2,0.2-0.4,0.4-0.6,0.4c-0.2,0-0.3-0.1-0.5-0.4C4.1,21.1,4,20.8,4,20.5c-0.1-0.9-0.2-1.5-0.1-1.8
		c0-0.2,0.1-0.6,0.2-1.2C4.1,17.3,4.2,17.2,4.3,17.2L4.3,17.2z M1.3,17.3c0.1-0.5,0.3-0.7,0.6-0.8c0.3-0.1,0.5,0,0.7,0.3
		c0.1,0.2,0.1,0.6,0,1c0,0.3,0,0.6,0,0.9c0.1,0.3,0.1,0.6-0.1,0.9c-0.1,0.3-0.3,0.5-0.5,0.7c-0.1,0.2-0.2,0.5-0.3,0.8
		c-0.1,0.3-0.2,0.5-0.4,0.6c-0.2,0.1-0.4,0.2-0.7,0.1c-0.3-0.1-0.5-0.3-0.5-0.6c-0.1-0.3-0.1-0.7,0-1c0.1-0.3,0.2-0.6,0.3-0.9
		c0-0.5,0.2-1,0.5-1.4C1.1,17.7,1.2,17.5,1.3,17.3L1.3,17.3z"/>
	<path class="st1" d="M34.8,18.8c0.2-0.2,0.4-0.4,0.7-0.5c0.2-0.1,0.5-0.3,0.7-0.5c0.3-0.2,0.6-0.4,0.8-0.5c0.4-0.2,0.9-0.5,1.4-0.9
		c0.5-0.3,0.8-0.6,1-0.7c0.1-0.2,0.3-0.4,0.5-0.5c0.5-0.3,0.9-0.6,1.3-1C41.4,14,41.7,14,42,14c0.4,0.1,0.6,0.3,0.5,0.7
		c-0.1,0.3-0.3,0.6-0.6,0.8c-0.2,0.1-0.3,0.3-0.5,0.5c-0.4,0.3-0.7,0.6-1,0.8c-0.3,0.1-0.5,0.3-0.6,0.6c-0.4,0.4-0.7,0.6-1,0.8
		c-0.1,0.2-0.1,0.3-0.1,0.5c-0.1,0.3-0.1,0.4-0.1,0.4c-0.1,0-0.3,0-0.4,0c-0.1,0-0.3,0-0.5,0c-0.1,0-0.1,0-0.1,0c0,0,0,0,0,0
		c-0.2,0.1-0.4,0.3-0.6,0.5c-0.2,0.2-0.5,0.3-0.9,0.5c-0.2,0.1-0.5,0.3-0.7,0.5c-0.2,0.2-0.6,0.4-1.1,0.6c-0.7,0.3-1.2,0.5-1.4,0.5
		c-0.2,0-0.4,0.1-0.7,0.4c-0.4,0.3-0.8,0.4-1.1,0.4c-0.5,0.1-0.8,0-1.1-0.1c-0.3-0.2-0.5-0.5-0.6-0.9c0-0.3,0.1-0.6,0.4-0.9
		c0.3-0.3,0.7-0.5,1.1-0.5c0.8-0.1,1.3-0.2,1.6-0.4c0.2-0.1,0.5-0.2,0.9-0.3C33.9,19.3,34.5,19,34.8,18.8L34.8,18.8z M41.5,22.6
		c-0.4,0.2-0.7,0.2-0.9,0.2c-0.3-0.1-0.5-0.2-0.7-0.2c-0.3,0-0.6-0.2-0.7-0.3c-0.1-0.2-0.2-0.4-0.3-0.5c-0.1-0.1-0.2-0.3-0.2-0.4
		c0-0.1-0.1-0.3-0.2-0.4c-0.2-0.2-0.3-0.5-0.3-0.8c0-0.3,0.1-0.5,0.2-0.6c0.2-0.2,0.5-0.1,0.9,0.1c0.2,0.1,0.4,0.2,0.6,0.4
		c0.1,0.1,0.2,0.1,0.3,0.1c0.3,0.1,0.8,0.1,1.4-0.1c0.8-0.2,1.3-0.3,1.5-0.5c0.1-0.1,0.2-0.2,0.3-0.2c0.3-0.1,0.7-0.5,1.1-1
		c0.2-0.2,0.3-0.4,0.4-0.5c0.3-0.3,0.5-0.8,0.7-1.4c0.1-0.7,0.1-1.2,0-1.5c-0.2-0.5-0.5-1-1-1.4c-0.1,0-0.2-0.1-0.2-0.1
		c-0.2,0-0.4,0-0.5,0c-0.3,0-0.4,0.1-0.6,0.1c-0.2,0-0.3,0.1-0.4,0.1c-0.1,0-0.2-0.2-0.2-0.5c-0.1-0.3-0.2-0.6-0.3-0.9
		c-0.1-0.1-0.1-0.2-0.1-0.2c-0.1,0-0.2,0-0.3,0c-0.4-0.1-0.7-0.1-0.9,0c-0.3,0.1-0.6,0.1-0.7,0c0,0,0,0-0.1,0
		c-0.1,0.2-0.3,0.5-0.6,0.7c-0.2,0.1-0.3,0.3-0.4,0.4c-0.3,0.3-0.7,0.5-1,0.7c-0.2,0.1-0.4,0.3-0.6,0.5c-0.4,0.3-0.7,0.5-0.9,0.7
		c-0.2,0.1-0.3,0.2-0.5,0.4c-0.2,0.2-0.5,0.4-0.8,0.6c-0.2,0.1-0.4,0.2-0.6,0.4c-0.2,0.2-0.4,0.3-0.8,0.4c-0.2,0.1-0.4,0.2-0.7,0.5
		c-0.2,0.1-0.6,0.3-1,0.5c-0.6,0.3-1,0.4-1.3,0.4c-0.1,0-0.4,0.1-0.7,0.3c-0.3,0.2-0.7,0.4-1,0.4c-0.4,0-0.8,0-1-0.2
		c-0.3-0.2-0.5-0.5-0.5-0.8c-0.1-0.2,0.1-0.5,0.4-0.8c0.3-0.3,0.6-0.4,1-0.4c0.7-0.1,1.2-0.2,1.5-0.3c0.2-0.1,0.4-0.2,0.8-0.2
		c0.8-0.3,1.4-0.5,1.6-0.7c0.2-0.2,0.4-0.3,0.6-0.4c0.2-0.1,0.4-0.3,0.6-0.4c0.3-0.2,0.6-0.4,0.8-0.5c0.4-0.2,0.8-0.5,1.3-0.8
		c0.4-0.3,0.7-0.5,0.9-0.6c0.1-0.2,0.3-0.3,0.4-0.4c0.4-0.2,0.7-0.4,1-0.7l0,0c-0.2-0.1-0.3-0.4-0.3-0.7c0-0.3,0.2-0.6,0.6-0.7
		c0.4-0.1,0.7-0.2,1-0.1c0.3,0,0.7,0.1,1,0.1c0.4,0.1,0.7,0.2,0.9,0.1c0.1,0,0.3-0.1,0.5,0c0.2,0.1,0.4,0.1,0.7,0.1
		c0.2,0,0.4,0,0.6,0.2c0.4,0.3,0.7,0.5,1.1,0.6c0.3,0.1,0.6,0.3,0.7,0.5c0.2,0.3,0.6,0.6,1,0.9c0.2,0.1,0.3,0.3,0.3,0.6
		c0.1,0.2,0.2,0.4,0.4,0.7c0.2,0.2,0.2,0.4,0.2,0.7c0,0.2,0.1,0.4,0.2,0.5c0.1,0.1,0.1,0.3,0,0.4c-0.1,0.2-0.1,0.4-0.1,0.7
		c0.1,0.2,0.1,0.6-0.1,1.1c0,0.1,0,0.3,0,0.5c0,0.3-0.2,0.7-0.5,1.2c-0.4,0.5-0.7,0.8-0.8,0.8c-0.1,0.1-0.2,0.2-0.3,0.5
		c-0.2,0.3-0.6,0.7-1.1,1c-1,0.7-1.7,1.1-2.1,1.1C42.3,22.3,41.9,22.4,41.5,22.6L41.5,22.6z M33.4,2.4c-0.5-0.1-0.7-0.4-0.7-0.7
		c0-0.4,0.1-0.6,0.4-0.8c0.3-0.3,0.7-0.4,1.2-0.4c0.3,0,0.6-0.1,0.9-0.1C35.5,0.1,36,0,36.6,0c0.7,0,1.2,0,1.6,0.1
		c0.5,0.1,1.1,0.2,1.6,0.1c0.9-0.1,1.6,0,2.3,0.3c0.2,0.1,0.4,0.2,0.7,0.2c0.4,0,0.7,0.2,1.1,0.5c0.4,0.3,0.6,0.5,0.6,0.7
		c0,0.2,0.1,0.4,0.3,0.5c0.2,0.2,0.3,0.7,0.3,1.3c0.1,0.3,0.1,0.6,0.2,0.8c0.1,0.2,0.2,0.6,0.2,1c0,0.5,0,1,0,1.5
		c0,0.7-0.2,1.2-0.5,1.5c-0.2,0.4-0.6,0.7-1.2,0.9c-0.4,0.2-0.9,0.3-1.6,0.2c-0.4,0-0.8,0-1.1,0c-0.4,0.1-0.7,0.1-1,0.1
		c-0.3-0.1-0.6-0.2-0.9-0.1c-0.4,0.2-0.7,0.2-1,0.1c-0.2-0.1-0.5-0.1-0.7-0.1c-0.1,0.3-0.2,0.6-0.3,0.8c-0.1,0.2-0.4,0.5-0.7,0.7
		c-0.2,0.1-0.3,0.3-0.4,0.4c-0.1,0.2-0.3,0.4-0.5,0.5c-0.2,0.1-0.4,0.2-0.6,0.4c-0.3,0.3-0.6,0.5-1,0.6c-0.3,0.1-0.6,0.3-0.8,0.4
		c-0.2,0.2-0.6,0.3-1,0.3c-0.4,0-0.7,0.1-1,0.3c-0.3,0.1-0.6,0.2-0.7,0.2c-0.2,0-0.4,0-0.5,0c-0.4,0.1-0.8,0.2-1.2,0.1
		c-0.3-0.1-0.5-0.2-0.5-0.3c0-0.1-0.1-0.2-0.1-0.2c-0.1,0-0.1-0.2-0.1-0.3c0-0.3,0-0.5,0.2-0.7c0.1-0.1,0.4-0.3,0.7-0.4
		c0.3-0.1,0.6-0.1,0.9,0c0.2,0,0.5,0.1,0.8,0.1c0.3,0,0.6-0.1,0.9-0.3c0.3-0.2,0.5-0.3,0.8-0.3c0.3,0,0.6-0.2,0.8-0.4
		c0.2-0.2,0.5-0.3,0.7-0.3c0.4-0.2,0.7-0.4,0.9-0.7c0.1-0.2,0.2-0.4,0.3-0.5c-0.4-0.1-0.8-0.1-1.2,0.1c-0.2,0.1-0.6,0.1-1.2-0.1
		c-0.6-0.2-0.9-0.4-1-0.6c-0.1-0.3-0.2-0.5-0.5-0.7c-0.2-0.2-0.3-0.5-0.3-1c0-0.8-0.1-1.4-0.1-1.9c-0.1-0.3-0.1-0.6,0-0.9
		c0-0.2,0-0.4,0-0.6c0-0.5,0.1-0.8,0.2-1.2c0.1-0.2,0.3-0.4,0.4-0.5c0.2-0.1,0.3-0.2,0.5-0.2c0.2,0,0.4,0.1,0.5,0.1
		c0.1,0.1,0.3,0.3,0.3,0.6c0.1,0.3,0.1,0.8,0.1,1.4c-0.1,0.8-0.1,1.4-0.1,1.8C32.7,6.6,32.8,7,33,7.2c0.2,0.3,0.5,0.6,0.9,0.7
		c0.6,0.2,1.3,0.2,2-0.1c1-0.3,1.9-0.3,2.8-0.1c0.6,0.1,1.1,0.1,1.5-0.1c0.4-0.1,0.9-0.2,1.5-0.2c0.5,0.1,0.8-0.1,1.1-0.4
		c0.2-0.2,0.4-0.5,0.5-0.9c0.1-0.5,0-0.9-0.1-1.3c-0.1-0.3-0.2-0.6-0.2-0.9c0-0.2-0.1-0.4-0.1-0.6c-0.2-0.2-0.3-0.4-0.3-0.5
		c-0.1-0.2-0.2-0.3-0.3-0.4c-0.2-0.1-0.3-0.1-0.4-0.2c-0.2-0.2-0.9-0.4-2.3-0.4c-0.9,0-1.7,0-2.3-0.1c-0.8-0.2-1.6-0.1-2.3,0.3
		C34.5,2.4,34,2.5,33.4,2.4L33.4,2.4z M36.7,4c0.6-0.1,1.2-0.1,1.9,0c0.5,0.1,0.9,0.2,1.3,0c0.4-0.1,0.8-0.1,1.1,0.1
		c0.3,0.2,0.5,0.5,0.5,0.9c-0.1,0.3-0.2,0.6-0.4,0.7c-0.3,0.1-0.6,0.1-0.8,0c-0.5-0.1-1-0.1-1.4,0c-0.5,0.2-0.9,0.2-1.3,0
		c-0.4-0.1-1-0.1-1.7,0.1c-0.5,0.2-1,0.2-1.3,0c-0.3-0.2-0.4-0.5-0.4-0.8c0-0.3,0.2-0.6,0.4-0.8C34.7,4,34.9,4,35.3,4.1
		C35.7,4.2,36.1,4.2,36.7,4L36.7,4z"/>
	<polygon class="st2" points="66.4,12.7 73.8,12.7 73.8,14.6 69.2,14.6 69.2,16 73.4,16 73.4,17.8 69.2,17.8 69.2,19.6 73.9,19.6
		73.9,21.6 66.4,21.6 	"/>
	<polygon class="st2" points="74.8,12.7 83.1,12.7 83.1,14.9 80.3,14.9 80.3,21.6 77.6,21.6 77.6,14.9 74.8,14.9 	"/>
	<path class="st2" d="M100.5,21.6h2.9l-3.3-8.9h-3l-3.3,8.9h2.8l0.4-1.5h3.1L100.5,21.6L100.5,21.6z M97.6,18.2l1-3.2l1,3.2H97.6
		L97.6,18.2z"/>
	<path class="st2" d="M103.9,18.6l2.6-0.2c0.1,0.4,0.2,0.7,0.3,1c0.3,0.4,0.7,0.5,1.2,0.5c0.4,0,0.7-0.1,0.9-0.3
		c0.2-0.2,0.3-0.4,0.3-0.6c0-0.2-0.1-0.4-0.3-0.6c-0.2-0.2-0.7-0.4-1.4-0.5c-1.2-0.3-2.1-0.6-2.6-1.1c-0.5-0.4-0.8-1-0.8-1.7
		c0-0.5,0.1-0.9,0.4-1.3c0.3-0.4,0.7-0.7,1.2-1c0.5-0.2,1.3-0.3,2.2-0.3c1.1,0,2,0.2,2.6,0.6c0.6,0.4,0.9,1.1,1.1,2l-2.6,0.2
		c-0.1-0.4-0.2-0.7-0.4-0.9c-0.2-0.2-0.5-0.3-0.9-0.3c-0.3,0-0.6,0.1-0.7,0.2c-0.2,0.1-0.2,0.3-0.2,0.5c0,0.1,0.1,0.3,0.2,0.4
		c0.1,0.1,0.4,0.2,0.9,0.3c1.2,0.3,2,0.5,2.6,0.8c0.5,0.3,0.9,0.6,1.1,1c0.2,0.4,0.3,0.8,0.3,1.3c0,0.6-0.2,1.1-0.5,1.6
		c-0.3,0.5-0.8,0.8-1.3,1.1c-0.6,0.2-1.3,0.4-2.1,0.4c-1.5,0-2.5-0.3-3.1-0.9C104.3,20.3,104,19.5,103.9,18.6L103.9,18.6z"/>
	<polygon class="st2" points="113.5,12.7 120.8,12.7 120.8,14.6 116.2,14.6 116.2,16 120.5,16 120.5,17.8 116.2,17.8 116.2,19.6
		120.9,19.6 120.9,21.6 113.5,21.6 	"/>
	<polygon class="st2" points="55.4,10.4 58.1,10.4 61.7,16.6 61.7,10.4 64.4,10.4 64.4,21.5 61.7,21.5 58.1,15.4 58.1,21.5
		55.4,21.5 	"/>
	<polygon class="st2" points="84.2,10.4 92,10.4 92,12.8 87.2,12.8 87.2,14.5 91.7,14.5 91.7,16.8 87.2,16.8 87.2,19 92.2,19
		92.2,21.5 84.2,21.5 	"/>
	<path class="st2" d="M51.5,27.8v9.3h-2.4v-6.1c-0.4,0.3-0.8,0.6-1.1,0.8c-0.4,0.2-0.8,0.4-1.4,0.6v-2.1c0.8-0.3,1.5-0.6,1.9-1
		c0.5-0.4,0.8-0.9,1.1-1.5L51.5,27.8L51.5,27.8z"/>
	<path class="st2" d="M64.1,28.8c-0.3-0.3-0.6-0.6-1-0.7c-0.4-0.2-0.9-0.3-1.6-0.3c-1.2,0-2.1,0.4-2.7,1.2c-0.6,0.8-1,2-1,3.6
		c0,1.1,0.2,2,0.5,2.7c0.3,0.7,0.7,1.2,1.2,1.5c0.5,0.3,1.2,0.5,2.1,0.5c0.7,0,1.3-0.1,1.8-0.4c0.5-0.3,0.8-0.6,1.1-1.1
		c0.3-0.5,0.4-1.1,0.4-1.7c0-0.9-0.3-1.6-0.8-2.2c-0.5-0.6-1.2-0.9-1.9-0.9c-0.4,0-0.7,0.1-1,0.2c-0.3,0.1-0.6,0.4-0.9,0.7
		c0.1-1,0.2-1.6,0.3-1.9c0.2-0.4,0.5-0.6,0.9-0.6c0.2,0,0.4,0.1,0.5,0.2c0.1,0.1,0.3,0.4,0.3,0.7l2.4-0.3
		C64.6,29.6,64.4,29.1,64.1,28.8L64.1,28.8z M60.7,33c0.2-0.3,0.5-0.4,0.8-0.4c0.3,0,0.6,0.1,0.8,0.4c0.2,0.3,0.3,0.7,0.3,1.2
		c0,0.5-0.1,0.9-0.3,1.1c-0.2,0.3-0.5,0.4-0.8,0.4c-0.3,0-0.6-0.1-0.9-0.4c-0.2-0.3-0.4-0.7-0.4-1.2C60.3,33.6,60.4,33.3,60.7,33
		L60.7,33z"/>
	<path class="st2" d="M72.6,30.6l-2.3-0.4c0.2-0.8,0.5-1.4,1.1-1.8c0.5-0.4,1.3-0.6,2.3-0.6c1.1,0,1.9,0.2,2.4,0.7
		c0.5,0.4,0.8,1,0.8,1.7c0,0.4-0.1,0.7-0.3,1.1c-0.2,0.3-0.5,0.6-0.9,0.8c0.3,0.1,0.6,0.2,0.8,0.3c0.3,0.2,0.5,0.4,0.7,0.7
		c0.2,0.3,0.2,0.7,0.2,1.1c0,0.5-0.1,1-0.4,1.5c-0.3,0.5-0.6,0.9-1.1,1.1c-0.5,0.3-1.1,0.4-1.9,0.4c-0.8,0-1.4-0.1-1.8-0.3
		c-0.4-0.2-0.8-0.5-1.1-0.9c-0.3-0.4-0.5-0.9-0.7-1.4l2.4-0.3c0.1,0.5,0.2,0.9,0.4,1.1c0.2,0.2,0.4,0.3,0.8,0.3
		c0.3,0,0.6-0.1,0.8-0.4c0.2-0.2,0.3-0.6,0.3-1c0-0.4-0.1-0.8-0.3-1c-0.2-0.2-0.5-0.4-0.8-0.4c-0.2,0-0.4,0-0.8,0.2l0.1-1.8
		c0.1,0,0.2,0,0.3,0c0.3,0,0.6-0.1,0.8-0.3c0.2-0.2,0.3-0.5,0.3-0.8c0-0.3-0.1-0.5-0.2-0.7c-0.2-0.2-0.4-0.2-0.6-0.2
		c-0.3,0-0.5,0.1-0.7,0.3C72.8,29.9,72.7,30.2,72.6,30.6L72.6,30.6z"/>
	<polygon class="st2" points="0.1,30.5 1.9,30.5 2.6,34 3.5,30.5 5.4,30.5 6.3,34 7,30.5 8.9,30.5 7.5,36.8 5.6,36.8 4.5,32.8
		3.4,36.8 1.5,36.8 	"/>
	<polygon class="st2" points="12.9,30.5 14.8,30.5 15.4,34 16.4,30.5 18.2,30.5 19.2,34 19.9,30.5 21.7,30.5 20.3,36.8 18.4,36.8
		17.3,32.8 16.2,36.8 14.3,36.8 	"/>
	<polygon class="st2" points="25.8,30.5 27.6,30.5 28.3,34 29.3,30.5 31.1,30.5 32,34 32.7,30.5 34.6,30.5 33.2,36.8 31.3,36.8
		30.2,32.8 29.1,36.8 27.2,36.8 	"/>
	<polygon class="st2" points="39.7,32.7 41.6,32.7 41.6,34.5 39.7,34.5 	"/>
	<polygon class="st2" points="82.9,32.7 84.8,32.7 84.8,34.5 82.9,34.5 	"/>
	<path class="st2" d="M95.2,34.2l1.7,0.5c-0.1,0.5-0.3,0.9-0.5,1.2c-0.2,0.3-0.5,0.6-0.9,0.7c-0.4,0.2-0.8,0.2-1.4,0.2
		c-0.7,0-1.2-0.1-1.7-0.3c-0.4-0.2-0.8-0.5-1.1-1c-0.3-0.5-0.5-1.1-0.5-1.9c0-1,0.3-1.8,0.8-2.4c0.6-0.6,1.3-0.8,2.4-0.8
		c0.8,0,1.4,0.2,1.9,0.5c0.5,0.3,0.8,0.8,1,1.5l-1.7,0.4c-0.1-0.2-0.1-0.3-0.2-0.4c-0.1-0.2-0.2-0.3-0.4-0.3
		c-0.2-0.1-0.3-0.1-0.5-0.1c-0.4,0-0.8,0.2-1,0.5c-0.2,0.3-0.3,0.7-0.3,1.2c0,0.7,0.1,1.2,0.3,1.4c0.2,0.3,0.5,0.4,0.9,0.4
		c0.4,0,0.7-0.1,0.8-0.3C95,34.9,95.1,34.6,95.2,34.2L95.2,34.2z"/>
	<path class="st2" d="M102.5,35.5c0.3,0.5,0.7,0.8,1.1,1.1c0.5,0.2,1.1,0.3,1.8,0.3c0.7,0,1.3-0.1,1.7-0.4c0.5-0.3,0.8-0.6,1.1-1.1
		c0.3-0.5,0.4-1.1,0.4-1.8c0-1-0.3-1.8-0.8-2.4c-0.6-0.6-1.4-0.8-2.4-0.8c-1,0-1.8,0.3-2.4,0.9c-0.6,0.6-0.9,1.4-0.9,2.4
		C102.1,34.4,102.2,35,102.5,35.5L102.5,35.5z M104.4,32.3c0.2-0.3,0.5-0.4,0.9-0.4c0.4,0,0.7,0.1,1,0.4c0.2,0.3,0.4,0.7,0.4,1.3
		c0,0.7-0.1,1.2-0.3,1.5c-0.2,0.3-0.5,0.4-1,0.4c-0.4,0-0.7-0.1-1-0.4c-0.2-0.3-0.4-0.7-0.4-1.4C104,33,104.2,32.5,104.4,32.3
		L104.4,32.3z"/>
	<path class="st2" d="M119.1,30.4c-0.6,0-1,0.4-1.3,0.7c-0.3-0.4-0.7-0.7-1.3-0.7c-0.5,0-0.8,0.2-1.1,0.5c0,0,0-0.3,0-0.3h-1.7v6
		h1.7v-3.6c0-0.8,0.4-0.8,0.5-0.8c0.4,0,0.5,0.3,0.5,0.9v3.5h1.7V33c0-0.9,0.4-0.9,0.6-0.9c0.3,0,0.4,0.3,0.4,0.8v3.6h1.7v-4
		C120.9,31.2,120.2,30.4,119.1,30.4L119.1,30.4z"/>
</g>
</svg>
