<?xml version="1.0" encoding="utf-8"?>
<!-- Generator: Adobe Illustrator 22.0.0, SVG Export Plug-In . SVG Version: 6.00 Build 0)  -->
<svg version="1.1" id="图层_1" xmlns="http://www.w3.org/2000/svg" xmlns:xlink="http://www.w3.org/1999/xlink" x="0px" y="0px"
	 viewBox="0 0 120 40" style="enable-background:new 0 0 120 40;" xml:space="preserve">
<style type="text/css">
	.st0{fill:#FE0505;}
</style>
<title>home_bottom_logo</title>
<desc>Created with Sketch.</desc>
<g id="设计稿">
	<g id="_x30_1-首页" transform="translate(-1380.000000, -1550.000000)">
		<g id="Group-3" transform="translate(0.000000, 1520.000000)">
			<g id="logo" transform="translate(1380.000000, 30.000000)">
				<g id="Group-5">
					<path id="Combined-Shape" d="M19.7,4.4c-3.8,0-7.4,1.1-10.5,2.9L5.6,4.4C9.6,1.6,14.5,0,19.7,0c5.3,0,10.1,1.6,14.2,4.4
						l-3.7,2.9C27.2,5.5,23.5,4.4,19.7,4.4z M9.2,32.7c3.1,1.8,6.7,2.8,10.5,2.8c3.9,0,7.5-1,10.5-2.8l3.7,2.8
						c-4.1,2.8-8.9,4.4-14.2,4.4c-5.2,0-10.1-1.6-14.1-4.4L9.2,32.7z M4.3,20c0,3.9,1.1,7.5,2.9,10.7l-2.9,3.7C1.6,30.3,0,25.3,0,20
						C0,14.7,1.6,9.8,4.3,5.7l2.9,3.7C5.4,12.5,4.3,16.1,4.3,20z M32.3,30.7c1.8-3.1,2.8-6.8,2.8-10.7c0-3.9-1-7.5-2.8-10.7l2.8-3.7
						c2.8,4.1,4.4,9,4.4,14.3c0,5.3-1.6,10.3-4.4,14.4L32.3,30.7z M13.3,29.6c-2,0-3.8-0.6-5.3-1.7h0v-0.1v-3.5V24l0.2,0.3
						c0.4,0.6,2.1,2.3,4.9,2.3c2.1,0,2.3-1.6,2.3-2.3c0-1.4-1.4-2.1-3-2.9l-0.1,0c-2.1-1-4.4-2.1-4.4-5.1c0-2.7,2.3-4.8,5.4-4.9h0.4
						c2.7,0,4.1,1,4.3,1.2l0.1,0.1v0.1v2.9v0.3l-0.2-0.2c-1-0.9-2.5-1.4-4-1.4c-0.7,0-1.3,0.1-1.7,0.3c-0.7,0.3-1,0.8-1,1.6
						c0,0.9,1.1,1.5,2.5,2.2l0.3,0.1c1.8,1,4.8,2.5,4.8,5.9c0,1.5-0.6,3-1.5,3.9C16.2,29.1,14.8,29.6,13.3,29.6z M24,29.7h-0.2h-3.1
						h-0.1v-0.2V12.5v-0.1l0.1-0.1c0.1-0.1,2.9-1.2,5.9-1.2c3.2,0,4.8,1.2,4.8,1.2l0,0.1v0.1v3v0.3l-0.2-0.2
						c-0.3-0.2-1.7-1.2-4.3-1.3h-0.2c-1.4,0-2.3,0.3-2.8,0.5l-0.1,0v0.1v14.6V29.7z"/>
					<path id="Fill-1" class="st0" d="M27.9,22.1c-1.2,0-2.2-0.9-2.2-2.1c0-1.2,0.9-2.2,2.2-2.2c1.2,0,2.1,1,2.1,2.2
						C30,21.2,29,22.1,27.9,22.1"/>
					<path id="Combined-Shape_1_" d="M73.3,27.2v2.5h5.9v1.8h-5.9V34h-2.1v-2.5h-5.9v-1.8h5.9v-2.5h-4.3v-1.9h4.3v-2.5h-5.5V21h5.5
						v-2.3h2.1V21h5.5v1.8h-5.5v2.5h4.3v1.9H73.3z M50.3,33.8V19.1h1.7v14.7H50.3z M45.4,29.6V19.1H47v10.5v0.5v0.1
						c-0.1,2.1-0.8,3.1-1.7,3.6l-0.8-1.5C45.2,31.9,45.4,31.1,45.4,29.6z M57.3,30.1c0,0.9,0.1,2,2.5,2v1.7h-0.2
						c-1.6-0.1-2.6-0.6-3.2-1.2c-0.5,0.6-1.5,1.1-3.2,1.2h-0.1v-1.7c2.5,0,2.5-1.1,2.5-2v-5.5h1.6V30.1z M52.7,20.8v-1.6h7.5v1.6
						h-3.4l-0.5,1.2h0.8h2.7v8.7h-1.8v-7.1h-3.3v7.1H53v-8.7h1.6l0.5-1.2H52.7z M47.8,31.6V20.1h1.7v11.5H47.8z M110.3,25.6v2
						l-1.4,0.3v4c0,0.7-0.2,1.2-0.5,1.5c-0.3,0.3-1.8,0.5-3.2,0.5l0-2h1c0.3,0,0.5-0.1,0.6-0.2c0.1-0.1,0.1-0.3,0.1-0.6v-2.8
						l-1.9,0.4l0-2.2l1.9-0.3v-2.7h-1.7v-2h1.7v-2.7h2v2.7h1.3v2h-1.3v2.3L110.3,25.6z M120,22.9h-3.8v1.7h3.4v1.9
						c-0.6,1.5-1.5,2.8-2.7,4c0,0,1.1,0.7,2.8,1.5v2.1c-2.5-0.9-4.6-2.3-4.6-2.3s-2.8,1.6-4.9,2.4v-2c1.8-0.7,3.2-1.7,3.2-1.7
						c-0.9-0.8-1.6-1.8-2.3-2.8l1.7-1c0.6,1,1.4,1.9,2.3,2.6c0.9-0.8,1.6-1.7,2.1-2.7h-6.6v-1.9h3.4v-1.7h-3.4V21h3.4v-2.2h2.2V21
						h3.8V22.9z M95.8,22.1l-1.4,1.4l-2.5-2.3l1.3-1.3L95.8,22.1z M95.3,26l-1.4,1.4l-2.5-2.2l1.3-1.3L95.3,26z M98.1,28v0.7h1.6v2
						h-1.6V34h-2.2v-3.2h-5v-2h5v-0.5v-9.4h2.2V28z M88.9,21.3v1.9h2v2h-2c0,0,0.5,0.8,2,1.3v2c0,0-1.5-0.5-2-1V34h-2v-5.6
						c-0.6,1.2-2.3,2.8-2.3,2.8l0-2.1c2-2.2,2.3-3.9,2.3-3.9h-2.1v-2h2.2v-1.7L85,21.7l-0.4-1.8c2.1-0.2,4.1-0.4,5.9-0.6l0.6,1.8
						C90.4,21.2,89.7,21.3,88.9,21.3z"/>
					<path id="Combined-Shape_2_" d="M46.5,7.3h-2v-2h6.3v2h-2v7.9h-2.4V7.3z M51.9,5.3h5.6v2h-3.2v1.9h3v2h-3v2.1h3.3v2h-5.7V5.3z
						 M65,14.9c-0.8,0.3-1.6,0.4-2.2,0.4c-2.6,0-4.5-1.7-4.5-5.2c0-2.9,1.5-5,4.5-5c1.2,0,2,0.4,2.2,0.5l-0.1,2.2
						c-0.3-0.2-1-0.6-1.8-0.6c-1.6,0-2.3,1.1-2.3,3c0,1.7,0.9,3,2.4,3c0.9,0,1.5-0.4,1.7-0.6L65,14.9z M70,11.1h-1.9v4h-2.4V5.3h2.4
						v3.8H70V5.3h2.4v9.9H70V11.1z M75.6,8.3L75.6,8.3l-0.1,6.8h-2.1V5.3h2.8l2.4,6.8h0V5.3h2.1v9.9h-2.9L75.6,8.3z M85.4,5.1
						c2,0,4,1.4,4,5.1s-2.1,5.1-4,5.1s-4-1.4-4-5.1S83.5,5.1,85.4,5.1z M85.4,13.4L85.4,13.4c1,0,1.5-1.3,1.5-3.2
						c0-1.9-0.5-3.2-1.5-3.2c-1,0-1.5,1.3-1.5,3.2C83.9,12.2,84.4,13.4,85.4,13.4z M90,5.3h2.4v7.9h3v2H90V5.3z M99.7,5.1
						c2,0,4,1.4,4,5.1s-2.1,5.1-4,5.1c-2,0-4-1.4-4-5.1S97.7,5.1,99.7,5.1z M99.6,13.4L99.6,13.4c1,0,1.5-1.3,1.5-3.2
						c0-1.9-0.5-3.2-1.5-3.2c-1,0-1.5,1.3-1.5,3.2C98.1,12.2,98.6,13.4,99.6,13.4z M108.4,9.4h3.5v5.3c-0.5,0.3-1.6,0.6-2.7,0.6
						c-2.8,0-4.9-1.8-4.9-5c0-3,1.6-5.2,5-5.2c1.2,0,2,0.3,2.4,0.4l-0.1,2.1c-0.5-0.3-1.2-0.6-2-0.6c-1.9,0-2.7,1.3-2.7,3.2
						s0.9,3,2,3c0.3,0,0.6,0,0.8-0.2v-1.9h-1.2V9.4z M114.8,11.6l-2.7-6.3h2.8l1.2,3.8h0l1.2-3.8h2.7l-2.7,6.3v3.6h-2.4V11.6z"/>
				</g>
			</g>
		</g>
	</g>
</g>
</svg>
